<?xml version="1.0" encoding="UTF-8"?>
<svg version="1.1" xmlns="http://www.w3.org/2000/svg" width="612" height="408">
<path d="M0 0 C1.00212524 0.28805008 2.00425049 0.57610016 3.03674316 0.87287903 C5.13787898 1.48186928 7.23534853 2.10364103 9.32910156 2.73754883 C12.54286651 3.71054826 15.7656315 4.64656513 18.9921875 5.57617188 C21.03707062 6.1736898 23.0813648 6.77322779 25.125 7.375 C26.08950073 7.65844772 27.05400146 7.94189545 28.04772949 8.2339325 C28.9362561 8.50373428 29.82478271 8.77353607 30.74023438 9.05151367 C31.52281616 9.28706467 32.30539795 9.52261566 33.11169434 9.76530457 C35.03125 10.51953125 35.03125 10.51953125 37.03125 12.51953125 C37.29194641 14.40112305 37.29194641 14.40112305 37.3059082 16.71875 C37.31544022 17.58725586 37.32497223 18.45576172 37.33479309 19.35058594 C37.33388168 20.29321289 37.33297028 21.23583984 37.33203125 22.20703125 C37.33631638 23.17930664 37.3406015 24.15158203 37.34501648 25.15332031 C37.35077009 27.21792828 37.35125249 29.28255652 37.34692383 31.34716797 C37.34379035 34.47920372 37.36711739 37.61027049 37.39257812 40.7421875 C37.39485392 42.7513009 37.39555332 44.76041682 37.39453125 46.76953125 C37.403741 47.69596436 37.41295074 48.62239746 37.42243958 49.5769043 C37.32297296 63.84863536 30.93852942 76.38184998 21.03125 86.51953125 C20.37125 86.51953125 19.71125 86.51953125 19.03125 86.51953125 C19.03125 87.17953125 19.03125 87.83953125 19.03125 88.51953125 C17.06520315 90.18587584 15.09788071 91.73702768 13.03125 93.26953125 C12.43691162 93.7169165 11.84257324 94.16430176 11.23022461 94.62524414 C10.04187593 95.51904899 8.85171453 96.41044932 7.65966797 97.29931641 C6.29549352 98.32152688 4.94486666 99.3617835 3.59765625 100.40625 C-2.0078341 104.74422206 -6.59379115 108.10152554 -13.96875 107.51953125 C-25.69942004 102.49447827 -38.9275682 92.4313203 -46.96875 82.51953125 C-46.96875 81.85953125 -46.96875 81.19953125 -46.96875 80.51953125 C-47.62875 80.51953125 -48.28875 80.51953125 -48.96875 80.51953125 C-53.51116635 75.16732479 -56.18128257 69.2450382 -57.96875 62.51953125 C-58.14097076 61.91287125 -58.31319153 61.30621124 -58.4906311 60.6811676 C-59.00328941 58.36337417 -59.12344353 56.26305485 -59.16162109 53.89038086 C-59.17768402 52.97941147 -59.19374695 52.06844208 -59.21029663 51.12986755 C-59.25486127 46.99633729 -59.29575254 42.86296197 -59.31884766 38.72924805 C-59.33546367 36.54587182 -59.36282697 34.36255121 -59.40087891 32.17944336 C-59.45544811 29.03080054 -59.47748445 25.88342592 -59.4921875 22.734375 C-59.51485687 21.75621323 -59.53752625 20.77805145 -59.56088257 19.77024841 C-59.55300249 17.26022134 -59.48603843 14.97526322 -58.96875 12.51953125 C-55.63492325 9.2972116 -51.03790563 8.50807827 -46.61328125 7.36328125 C-45.56076424 7.08067444 -45.56076424 7.08067444 -44.48698425 6.7923584 C-42.25360178 6.19415004 -40.01762017 5.60646067 -37.78125 5.01953125 C-35.56335614 4.43045243 -33.34606644 3.83916627 -31.1290741 3.2467041 C-29.75497706 2.88024949 -28.38027864 2.51603831 -27.00483704 2.15466309 C-26.36104599 1.98438599 -25.71725494 1.81410889 -25.05395508 1.63867188 C-24.39807404 1.46953781 -23.74219299 1.30040375 -23.06643677 1.12614441 C-20.90827954 0.53298783 -20.90827954 0.53298783 -18.62960815 -0.36967468 C-11.65361565 -2.9064891 -6.99427281 -2.16522821 0 0 Z M17.03125 24.51953125 C14.79873835 26.24451657 12.57025232 27.97431865 10.34375 29.70703125 C9.40499023 30.43116211 9.40499023 30.43116211 8.44726562 31.16992188 C4.71557169 34.0810339 1.33757673 37.12029947 -1.96875 40.51953125 C-3.66525937 42.09486137 -5.37345357 43.65771229 -7.09375 45.20703125 C-7.94195312 45.97402344 -8.79015625 46.74101562 -9.6640625 47.53125 C-14.28702112 51.51953125 -14.28702112 51.51953125 -17.84375 51.51953125 C-21.10096589 50.47722216 -21.65827605 50.0103333 -23.65625 47.45703125 C-24.419375 46.48765625 -25.1825 45.51828125 -25.96875 44.51953125 C-26.95875 44.51953125 -27.94875 44.51953125 -28.96875 44.51953125 C-28.96875 43.85953125 -28.96875 43.19953125 -28.96875 42.51953125 C-32.76463866 43.06180106 -34.44086993 44.72080688 -36.96875 47.51953125 C-30.92105596 55.90078063 -30.92105596 55.90078063 -23.96875 63.51953125 C-23.30875 63.51953125 -22.64875 63.51953125 -21.96875 63.51953125 C-21.700625 64.11765625 -21.4325 64.71578125 -21.15625 65.33203125 C-19.98381533 67.49177933 -18.77505718 68.87743381 -16.96875 70.51953125 C-13.581551 69.08072105 -11.6093396 67.29833626 -9.21875 64.51953125 C-8.60515625 63.81828125 -7.9915625 63.11703125 -7.359375 62.39453125 C-5.77018078 60.64086555 -5.77018078 60.64086555 -5.96875 58.51953125 C-5.30875 58.51953125 -4.64875 58.51953125 -3.96875 58.51953125 C-2.15246224 56.57577171 -2.15246224 56.57577171 -0.34375 54.14453125 C0.28789063 53.33242187 0.91953125 52.5203125 1.5703125 51.68359375 C3.21775808 49.67843246 3.21775808 49.67843246 3.03125 47.51953125 C4.02125 47.18953125 5.01125 46.85953125 6.03125 46.51953125 C7.55341957 44.84628492 9.00312505 43.10628993 10.40625 41.33203125 C12.91729676 38.16450167 15.42412473 35.05974081 18.15625 32.08203125 C20.27322308 29.73738513 20.27322308 29.73738513 19.96875 27.20703125 C19.13803318 25.33763787 19.13803318 25.33763787 17.03125 24.51953125 Z " fill="#7452FC" transform="translate(111.96875,140.48046875)"/>
<path d="M0 0 C1.00212524 0.28805008 2.00425049 0.57610016 3.03674316 0.87287903 C5.13787898 1.48186928 7.23534853 2.10364103 9.32910156 2.73754883 C12.54286651 3.71054826 15.7656315 4.64656513 18.9921875 5.57617188 C21.03707062 6.1736898 23.0813648 6.77322779 25.125 7.375 C26.08950073 7.65844772 27.05400146 7.94189545 28.04772949 8.2339325 C28.9362561 8.50373428 29.82478271 8.77353607 30.74023438 9.05151367 C31.52281616 9.28706467 32.30539795 9.52261566 33.11169434 9.76530457 C35.03125 10.51953125 35.03125 10.51953125 37.03125 12.51953125 C37.29194641 14.40112305 37.29194641 14.40112305 37.3059082 16.71875 C37.31544022 17.58725586 37.32497223 18.45576172 37.33479309 19.35058594 C37.33388168 20.29321289 37.33297028 21.23583984 37.33203125 22.20703125 C37.33631638 23.17930664 37.3406015 24.15158203 37.34501648 25.15332031 C37.35077009 27.21792828 37.35125249 29.28255652 37.34692383 31.34716797 C37.34379035 34.47920372 37.36711739 37.61027049 37.39257812 40.7421875 C37.39485392 42.7513009 37.39555332 44.76041682 37.39453125 46.76953125 C37.403741 47.69596436 37.41295074 48.62239746 37.42243958 49.5769043 C37.32297296 63.84863536 30.93852942 76.38184998 21.03125 86.51953125 C20.37125 86.51953125 19.71125 86.51953125 19.03125 86.51953125 C19.03125 87.17953125 19.03125 87.83953125 19.03125 88.51953125 C17.06520315 90.18587584 15.09788071 91.73702768 13.03125 93.26953125 C12.43691162 93.7169165 11.84257324 94.16430176 11.23022461 94.62524414 C10.04187593 95.51904899 8.85171453 96.41044932 7.65966797 97.29931641 C6.29549352 98.32152688 4.94486666 99.3617835 3.59765625 100.40625 C-2.0078341 104.74422206 -6.59379115 108.10152554 -13.96875 107.51953125 C-25.69942004 102.49447827 -38.9275682 92.4313203 -46.96875 82.51953125 C-46.96875 81.85953125 -46.96875 81.19953125 -46.96875 80.51953125 C-47.62875 80.51953125 -48.28875 80.51953125 -48.96875 80.51953125 C-53.51116635 75.16732479 -56.18128257 69.2450382 -57.96875 62.51953125 C-58.14097076 61.91287125 -58.31319153 61.30621124 -58.4906311 60.6811676 C-59.00328941 58.36337417 -59.12344353 56.26305485 -59.16162109 53.89038086 C-59.17768402 52.97941147 -59.19374695 52.06844208 -59.21029663 51.12986755 C-59.25486127 46.99633729 -59.29575254 42.86296197 -59.31884766 38.72924805 C-59.33546367 36.54587182 -59.36282697 34.36255121 -59.40087891 32.17944336 C-59.45544811 29.03080054 -59.47748445 25.88342592 -59.4921875 22.734375 C-59.51485687 21.75621323 -59.53752625 20.77805145 -59.56088257 19.77024841 C-59.55300249 17.26022134 -59.48603843 14.97526322 -58.96875 12.51953125 C-55.63492325 9.2972116 -51.03790563 8.50807827 -46.61328125 7.36328125 C-45.56076424 7.08067444 -45.56076424 7.08067444 -44.48698425 6.7923584 C-42.25360178 6.19415004 -40.01762017 5.60646067 -37.78125 5.01953125 C-35.56335614 4.43045243 -33.34606644 3.83916627 -31.1290741 3.2467041 C-29.75497706 2.88024949 -28.38027864 2.51603831 -27.00483704 2.15466309 C-26.36104599 1.98438599 -25.71725494 1.81410889 -25.05395508 1.63867188 C-24.39807404 1.46953781 -23.74219299 1.30040375 -23.06643677 1.12614441 C-20.90827954 0.53298783 -20.90827954 0.53298783 -18.62960815 -0.36967468 C-11.65361565 -2.9064891 -6.99427281 -2.16522821 0 0 Z M-23.96875 9.26953125 C-25.82776722 9.82151888 -27.68714561 10.37229156 -29.546875 10.921875 C-30.46017578 11.19370605 -31.37347656 11.46553711 -32.31445312 11.74560547 C-37.28922735 13.19612371 -42.30916703 14.47048237 -47.328125 15.7578125 C-49.87132883 16.26096918 -49.87132883 16.26096918 -50.96875 17.51953125 C-51.263641 22.87572232 -51.28313905 28.23485889 -51.31884766 33.59838867 C-51.33527102 35.40125561 -51.36237666 37.20406122 -51.40087891 39.0065918 C-51.63170645 49.87455485 -51.43223466 58.7738835 -45.96875 68.51953125 C-45.56793213 69.26726807 -45.16711426 70.01500488 -44.75415039 70.78540039 C-43.86768912 72.38741746 -42.92635146 73.95899554 -41.96875 75.51953125 C-41.30875 75.51953125 -40.64875 75.51953125 -39.96875 75.51953125 C-39.741875 76.07640625 -39.515 76.63328125 -39.28125 77.20703125 C-34.30243861 85.97922275 -22.16389474 94.82601933 -12.96875 98.51953125 C-6.7823593 98.15562591 -1.94405759 93.86746878 3.03125 90.51953125 C3.69898438 90.09285156 4.36671875 89.66617188 5.0546875 89.2265625 C10.9922145 85.29060003 16.05573222 80.03664093 19.03125 73.51953125 C19.69125 73.51953125 20.35125 73.51953125 21.03125 73.51953125 C21.69125 71.53953125 22.35125 69.55953125 23.03125 67.51953125 C23.69125 67.51953125 24.35125 67.51953125 25.03125 67.51953125 C25.505625 66.34390625 25.98 65.16828125 26.46875 63.95703125 C26.73558594 63.29574219 27.00242187 62.63445312 27.27734375 61.953125 C29.08303195 56.1244009 29.1716375 50.21896823 29.12890625 44.1796875 C29.1274913 43.41273056 29.12607635 42.64577362 29.12461853 41.85557556 C29.11906766 39.43101935 29.10652463 37.00655906 29.09375 34.58203125 C29.08872864 32.92773572 29.08416685 31.27343872 29.08007812 29.61914062 C29.06911438 25.58590113 29.05188424 21.55273239 29.03125 17.51953125 C25.49619197 16.03923326 21.9796658 14.87827969 18.28515625 13.86328125 C17.20041016 13.56292969 16.11566406 13.26257813 14.99804688 12.953125 C13.87462891 12.64503906 12.75121094 12.33695313 11.59375 12.01953125 C9.3655003 11.40634567 7.13762306 10.79180471 4.91015625 10.17578125 C3.9260376 9.90572266 2.94191895 9.63566406 1.92797852 9.35742188 C-0.10813192 8.76846857 -2.12806109 8.12203272 -4.13305664 7.43457031 C-11.12152178 5.17948918 -17.22533104 7.20603521 -23.96875 9.26953125 Z " fill="#5830F4" transform="translate(111.96875,140.48046875)"/>
<path d="M0 0 C0.495 -0.474375 0.99 -0.94875 1.5 -1.4375 C6.09250424 -4.30781515 11.00386792 -4.40388727 16.1875 -3.375 C20.15224152 -2.22772243 22.39984396 -0.2304969 25 3 C26.1687481 6.5062443 26.12514267 9.6477866 26.09765625 13.29296875 C26.0962413 13.99899734 26.09482635 14.70502594 26.09336853 15.43244934 C26.08777764 17.68417626 26.07522688 19.93580321 26.0625 22.1875 C26.05748382 23.71549335 26.05292112 25.24348827 26.04882812 26.77148438 C26.0378112 30.51436135 26.02055287 34.25716373 26 38 C22.04 38 18.08 38 14 38 C13.67 28.76 13.34 19.52 13 10 C10.18010841 8.40371521 10.18010841 8.40371521 3 9 C2.67 18.57 2.34 28.14 2 38 C-1.96 38 -5.92 38 -10 38 C-10.99701848 35.00894456 -11.0908734 33.14867873 -11.02734375 30.03515625 C-11.00897461 28.58786133 -11.00897461 28.58786133 -10.99023438 27.11132812 C-10.95514443 25.08260969 -10.91609681 23.05395576 -10.87304688 21.02539062 C-10.86208984 20.05923828 -10.85113281 19.09308594 -10.83984375 18.09765625 C-10.81458618 16.77519897 -10.81458618 16.77519897 -10.78881836 15.42602539 C-11.01466878 12.83148704 -11.68835208 11.22769894 -13 9 C-17.14093698 8.79029441 -17.14093698 8.79029441 -21 10 C-21.33 19.24 -21.66 28.48 -22 38 C-25.96 38 -29.92 38 -34 38 C-35 37 -35 37 -35.11352539 33.30639648 C-35.11336624 31.66128708 -35.10766988 30.01617269 -35.09765625 28.37109375 C-35.0962413 27.50686295 -35.09482635 26.64263214 -35.09336853 25.75221252 C-35.08775239 22.98060708 -35.07519719 20.2090812 -35.0625 17.4375 C-35.05748708 15.5631522 -35.05292381 13.68880315 -35.04882812 11.81445312 C-35.03777772 7.20960456 -35.0205023 2.60481579 -35 -2 C-33.06325815 -2.19517554 -31.12555991 -2.38087873 -29.1875 -2.5625 C-28.10855469 -2.66691406 -27.02960938 -2.77132812 -25.91796875 -2.87890625 C-23 -3 -23 -3 -20 -2 C-18.989375 -2.350625 -17.97875 -2.70125 -16.9375 -3.0625 C-11.13318536 -4.90651467 -4.9464652 -3.29764347 0 0 Z " fill="#5630E2" transform="translate(308,178)"/>
<path d="M0 0 C1.02287109 0.14501953 1.02287109 0.14501953 2.06640625 0.29296875 C4.69708337 1.25489311 5.59004564 2.66656874 7.1875 4.9375 C7.69667969 5.64777344 8.20585937 6.35804688 8.73046875 7.08984375 C11.20658997 10.81545383 11.11649558 13.27405295 11.09765625 17.7578125 C11.0962413 18.42086395 11.09482635 19.08391541 11.09336853 19.76705933 C11.08776754 21.88641863 11.075215 24.00567259 11.0625 26.125 C11.05748512 27.56119639 11.05292219 28.99739444 11.04882812 30.43359375 C11.03779782 33.95576345 11.02053259 37.47787145 11 41 C7.7 41 4.4 41 1 41 C1 40.34 1 39.68 1 39 C-0.155 39.495 -1.31 39.99 -2.5 40.5 C-9.08522272 42.93467741 -14.76308547 42.70775859 -21.23828125 39.97265625 C-24.04847254 38.42113157 -25.42175658 36.77770841 -27 34 C-28.25803695 29.05771199 -28.29470005 25.5894001 -26 21 C-21.28848748 16.17891742 -16.99919931 14.15672538 -10.109375 13.88671875 C-7.40252814 13.8763078 -4.70526714 13.91194429 -2 14 C-4.36255012 11.25335431 -4.75563869 11.02106563 -8.625 10.6875 C-13.21289986 10.8495262 -17.56969115 11.85140141 -22 13 C-25 7.375 -25 7.375 -25 4 C-16.53071415 -0.84280973 -9.57345128 -1.61956883 0 0 Z M-15 26 C-14.50243908 28.75641416 -14.50243908 28.75641416 -13 31 C-10.96618256 31.19965405 -10.96618256 31.19965405 -8.625 31.1875 C-7.43777344 31.20876953 -7.43777344 31.20876953 -6.2265625 31.23046875 C-3.71268667 31.14507509 -3.71268667 31.14507509 -1 29 C-1 27.68 -1 26.36 -1 25 C-3.64440639 24.1185312 -5.28060752 23.83825182 -8 23.8125 C-9.0209375 23.79123047 -9.0209375 23.79123047 -10.0625 23.76953125 C-12.32614132 23.89059589 -12.32614132 23.89059589 -15 26 Z " fill="#572BF7" transform="translate(257,175)"/>
<path d="M0 0 C5.05824515 4.31438557 7.87776561 8.23617321 9.125 14.8125 C9.26223531 17.50515145 9.21972591 20.11281164 9.125 22.8125 C5.84873625 23.7946994 2.89711881 23.92830914 -0.515625 23.91015625 C-1.58554687 23.90693359 -2.65546875 23.90371094 -3.7578125 23.90039062 C-4.86898438 23.89201172 -5.98015625 23.88363281 -7.125 23.875 C-8.81496094 23.86823242 -8.81496094 23.86823242 -10.5390625 23.86132812 C-13.31776217 23.84955397 -16.09635409 23.8331084 -18.875 23.8125 C-17.5660428 26.93447478 -17.5660428 26.93447478 -14.875 28.8125 C-13.08640489 28.93457871 -11.29271619 28.98798448 -9.5 29 C-8.54351562 29.01417969 -7.58703125 29.02835938 -6.6015625 29.04296875 C-3.80881477 28.80690555 -2.30463888 28.12036944 0.125 26.8125 C1.115 26.8125 2.105 26.8125 3.125 26.8125 C4.97180938 29.1869692 6.125 30.81759679 6.125 33.875 C4.63701246 36.75797586 2.83935112 38.0632515 0.125 39.8125 C-8.28307969 42.05465458 -16.32069219 41.18074006 -24 37.1875 C-28.85370312 33.17791916 -31.86605165 28.66998207 -32.8125 22.375 C-33.19085871 15.27162032 -32.14558283 9.89786027 -27.5 4.375 C-20.46161961 -3.29900505 -9.36263255 -3.86717431 0 0 Z M-17.5 10.3125 C-18.28375 11.1375 -19.0675 11.9625 -19.875 12.8125 C-19.545 13.4725 -19.215 14.1325 -18.875 14.8125 C-13.595 14.8125 -8.315 14.8125 -2.875 14.8125 C-3.205 13.4925 -3.535 12.1725 -3.875 10.8125 C-4.535 10.8125 -5.195 10.8125 -5.875 10.8125 C-5.875 10.1525 -5.875 9.4925 -5.875 8.8125 C-12.31861813 7.33320025 -12.31861813 7.33320025 -17.5 10.3125 Z " fill="#5529F6" transform="translate(369.875,176.1875)"/>
<path d="M0 0 C3.96 0 7.92 0 12 0 C12.33 9.57 12.66 19.14 13 29 C18.94403177 30.52406616 18.94403177 30.52406616 24 28 C24.33 18.76 24.66 9.52 25 0 C28.96 0 32.92 0 37 0 C37.8230363 13.68297852 38.12385692 27.29316778 38 41 C34.37 41 30.74 41 27 41 C27 40.34 27 39.68 27 39 C25.88625 39.515625 24.7725 40.03125 23.625 40.5625 C17.66605865 42.79577997 11.95461313 42.22038369 6.125 39.8125 C2.28575792 36.53785234 0.17971917 33.43214918 -0.45410156 28.38134766 C-0.4331543 27.07214355 -0.41220703 25.76293945 -0.390625 24.4140625 C-0.38496521 23.71227875 -0.37930542 23.010495 -0.37347412 22.28744507 C-0.35124483 20.06590913 -0.30108056 17.84604077 -0.25 15.625 C-0.22991731 14.11070053 -0.21166964 12.59637554 -0.1953125 11.08203125 C-0.15142633 7.38748732 -0.08249577 3.69390667 0 0 Z " fill="#572DF3" transform="translate(442,175)"/>
<path d="M0 0 C-0.66 3.63 -1.32 7.26 -2 11 C-3.093125 10.95875 -4.18625 10.9175 -5.3125 10.875 C-9.08892229 10.67925334 -9.08892229 10.67925334 -12 13 C-13.2188121 16.55672179 -13.2188121 16.55672179 -14 20 C-13.195625 19.7525 -13.195625 19.7525 -12.375 19.5 C-9.54113991 18.90339788 -6.8880194 18.9343632 -4 19 C-2.26639335 22.46721329 -3.51638155 26.23852315 -4 30 C-7.3 30 -10.6 30 -14 30 C-14 39.9 -14 49.8 -14 60 C-17.96 60 -21.92 60 -26 60 C-26.9523512 54.39926794 -27.15145789 48.98771786 -27.125 43.3125 C-27.12886719 42.47138672 -27.13273438 41.63027344 -27.13671875 40.76367188 C-27.13542969 39.95091797 -27.13414062 39.13816406 -27.1328125 38.30078125 C-27.13168457 37.57028564 -27.13055664 36.83979004 -27.12939453 36.0871582 C-26.99682207 33.94873934 -26.58427103 32.05713301 -26 30 C-27.98 30 -29.96 30 -32 30 C-33.04005702 26.61981469 -33.08004482 23.5219721 -33 20 C-30 19 -30 19 -27 19 C-26.97421875 18.43152344 -26.9484375 17.86304688 -26.921875 17.27734375 C-26.49553458 11.47330027 -25.48593623 7.71072464 -22 3 C-14.75995704 -1.52502685 -8.29454206 -1.65890841 0 0 Z " fill="#5528F7" transform="translate(203,156)"/>
<path d="M0 0 C0.78955078 0.00128906 1.57910156 0.00257813 2.39257812 0.00390625 C6.66792725 0.06841277 10.04351882 0.41625695 13.9375 2.375 C13.65622579 3.85617801 13.36216268 5.33493249 13.0625 6.8125 C12.90007813 7.63621094 12.73765625 8.45992187 12.5703125 9.30859375 C12.36148438 9.99050781 12.15265625 10.67242187 11.9375 11.375 C8.5737046 13.0568977 5.1248064 11.45310224 1.56640625 10.65234375 C-1.29352194 10.06756237 -1.29352194 10.06756237 -4.0625 12.375 C-4.0625 13.035 -4.0625 13.695 -4.0625 14.375 C-3.13630859 14.48714844 -3.13630859 14.48714844 -2.19140625 14.6015625 C4.47227022 15.63610588 10.12792232 17.45041068 14.9375 22.375 C16.46993101 25.39129906 17.02831095 27.99683252 16.9375 31.375 C15.65685003 35.01474202 14.11214362 38.10739741 10.9375 40.375 C2.25910555 43.67278989 -5.65033321 43.05743446 -14.0625 39.375 C-15.0525 38.715 -16.0425 38.055 -17.0625 37.375 C-16.0725 34.405 -15.0825 31.435 -14.0625 28.375 C-13.258125 28.684375 -12.45375 28.99375 -11.625 29.3125 C-6.45295313 30.85504029 -1.26904456 32.11051485 3.9375 30.375 C3.9375 29.715 3.9375 29.055 3.9375 28.375 C3.06867188 28.13265625 2.19984375 27.8903125 1.3046875 27.640625 C-12.99034459 23.48323312 -12.99034459 23.48323312 -17.0625 17.375 C-18.18509367 13.5754522 -18.12488493 11.58784271 -17 7.75 C-12.87143757 0.5583106 -7.63485915 -0.23800217 0 0 Z " fill="#572BF4" transform="translate(500.0625,174.625)"/>
<path d="M0 0 C9.27734375 -0.09765625 9.27734375 -0.09765625 12 0 C13 1 13 1 13.09765625 3.72265625 C13.08605469 4.82480469 13.07445312 5.92695313 13.0625 7.0625 C13.05347656 8.16722656 13.04445313 9.27195313 13.03515625 10.41015625 C13.02355469 11.26480469 13.01195312 12.11945313 13 13 C14.27875 12.79375 15.5575 12.5875 16.875 12.375 C19.0546875 12.0234375 19.0546875 12.0234375 21 12 C21.66 12.66 22.32 13.32 23 14 C22.96692593 17.05383879 22.43304158 19.96870896 22 23 C19.03 23 16.06 23 13 23 C13.33 28.94 13.66 34.88 14 41 C19.47940321 42.08219949 19.47940321 42.08219949 23 42 C23.36256858 43.4562672 23.71479793 44.91511185 24.0625 46.375 C24.35833984 47.59316406 24.35833984 47.59316406 24.66015625 48.8359375 C25 51 25 51 24 53 C18.62801956 54.57999425 13.6251852 54.52336473 8.3125 52.8125 C4.70894437 50.84074314 3.04956395 49.54732223 1 46 C-0.7572977 38.23860181 -0.0865437 29.92355611 0 22 C-0.804375 22.185625 -1.60875 22.37125 -2.4375 22.5625 C-3.283125 22.706875 -4.12875 22.85125 -5 23 C-6 22 -6 22 -6.09765625 19.93359375 C-6.08605469 19.10988281 -6.07445312 18.28617188 -6.0625 17.4375 C-6.05347656 16.61121094 -6.04445313 15.78492188 -6.03515625 14.93359375 C-6.02355469 14.29550781 -6.01195312 13.65742188 -6 13 C-4 12 -4 12 0 13 C0 8.71 0 4.42 0 0 Z " fill="#562AF5" transform="translate(385,163)"/>
<path d="M0 0 C2.83203125 0.03255208 5.6640625 0.06510417 8.49609375 0.09765625 C8.49609375 4.38765625 8.49609375 8.67765625 8.49609375 13.09765625 C11.79609375 12.76765625 15.09609375 12.43765625 18.49609375 12.09765625 C18.49609375 15.72765625 18.49609375 19.35765625 18.49609375 23.09765625 C15.19609375 23.09765625 11.89609375 23.09765625 8.49609375 23.09765625 C8.63695977 25.70217896 8.78357839 28.30615822 8.93359375 30.91015625 C8.97291016 31.64814453 9.01222656 32.38613281 9.05273438 33.14648438 C9.2399041 36.32836967 9.48330168 39.05928003 10.49609375 42.09765625 C13.46609375 42.09765625 16.43609375 42.09765625 19.49609375 42.09765625 C20.15609375 45.39765625 20.81609375 48.69765625 21.49609375 52.09765625 C15.48117334 54.44494226 10.89988349 54.93898266 4.74609375 52.78515625 C1.89912809 51.30692408 0.42820815 50.5361938 -1.50390625 48.09765625 C-3.90558722 40.00643159 -3.74656921 31.45604719 -3.50390625 23.09765625 C-5.48390625 22.76765625 -7.46390625 22.43765625 -9.50390625 22.09765625 C-9.50390625 19.12765625 -9.50390625 16.15765625 -9.50390625 13.09765625 C-7.01297814 11.8521922 -6.09309892 12.32089845 -3.50390625 13.09765625 C-3.51550781 12.24300781 -3.52710938 11.38835937 -3.5390625 10.5078125 C-3.54808594 9.40308594 -3.55710937 8.29835937 -3.56640625 7.16015625 C-3.57800781 6.05800781 -3.58960938 4.95585937 -3.6015625 3.8203125 C-3.46938887 0.13531158 -3.46938887 0.13531158 0 0 Z " fill="#582CF7" transform="translate(525.50390625,162.90234375)"/>
<path d="M0 0 C0 3.63 0 7.26 0 11 C-3.75976562 11.73242188 -3.75976562 11.73242188 -7.51953125 12.46484375 C-10.11397171 12.97741153 -10.11397171 12.97741153 -13 14 C-13.79880225 17.49554607 -14.10924039 20.68349383 -14.0625 24.265625 C-14.05476562 25.23757812 -14.04703125 26.20953125 -14.0390625 27.2109375 C-14.02617187 28.21382812 -14.01328125 29.21671875 -14 30.25 C-13.97461828 32.25515592 -13.95354202 34.26037261 -13.9375 36.265625 C-13.92589844 37.15024414 -13.91429687 38.03486328 -13.90234375 38.94628906 C-14 41 -14 41 -15 42 C-18.96 42 -22.92 42 -27 42 C-27 28.8 -27 15.6 -27 2 C-24.52621876 0.76310938 -22.82084683 0.86689913 -20.0625 0.875 C-19.18722656 0.87242187 -18.31195313 0.86984375 -17.41015625 0.8671875 C-15 1 -15 1 -12 2 C-11.2575 1.690625 -10.515 1.38125 -9.75 1.0625 C-6.37981859 -0.23961555 -3.58214661 -0.14047634 0 0 Z " fill="#5329F0" transform="translate(230,174)"/>
<path d="M0 0 C0.33 3.63 0.66 7.26 1 11 C-3.15039062 11.68359375 -3.15039062 11.68359375 -7.30078125 12.3671875 C-10.20059827 12.88085454 -10.20059827 12.88085454 -13 15 C-13.98998175 18.40068685 -14.17202969 21.77386826 -14.31640625 25.30078125 C-14.35830078 26.27724609 -14.40019531 27.25371094 -14.44335938 28.25976562 C-14.48267578 29.26716797 -14.52199219 30.27457031 -14.5625 31.3125 C-14.60568359 32.33923828 -14.64886719 33.36597656 -14.69335938 34.42382812 C-14.79906738 36.94907489 -14.90000208 39.47452067 -15 42 C-18.96 42 -22.92 42 -27 42 C-27 28.8 -27 15.6 -27 2 C-24.63386544 0.81693272 -23.13219264 0.86645392 -20.5 0.875 C-19.30890625 0.87113281 -19.30890625 0.87113281 -18.09375 0.8671875 C-16 1 -16 1 -14 2 C-12.948125 1.690625 -11.89625 1.38125 -10.8125 1.0625 C-7.00725416 0.00202165 -3.9246737 -0.16019076 0 0 Z " fill="#5428F7" transform="translate(439,174)"/>
<path d="M0 0 C2.55407867 2.55407867 4.07857727 4.12691136 4.25 7.8125 C4.20875 8.575625 4.1675 9.33875 4.125 10.125 C5.115 10.125 6.105 10.125 7.125 10.125 C6.795 13.095 6.465 16.065 6.125 19.125 C-2.25511029 19.27892039 -10.52395793 18.80771293 -18.875 18.125 C-19.205 16.805 -19.535 15.485 -19.875 14.125 C-21.525 13.795 -23.175 13.465 -24.875 13.125 C-25.205 12.135 -25.535 11.145 -25.875 10.125 C-26.865 13.095 -27.855 16.065 -28.875 19.125 C-29.535 18.795 -30.195 18.465 -30.875 18.125 C-30.78756669 16.20749714 -30.6793811 14.29093335 -30.5625 12.375 C-30.50449219 11.30765625 -30.44648438 10.2403125 -30.38671875 9.140625 C-29.83855259 5.91021071 -29.20503415 4.40522344 -26.875 2.125 C-25.885 2.125 -24.895 2.125 -23.875 2.125 C-23.875 1.465 -23.875 0.805 -23.875 0.125 C-6.85134965 -4.46827151 -6.85134965 -4.46827151 0 0 Z M-18.5 7.625 C-19.28375 8.45 -20.0675 9.275 -20.875 10.125 C-20.545 10.785 -20.215 11.445 -19.875 12.125 C-14.595 12.125 -9.315 12.125 -3.875 12.125 C-4.205 10.805 -4.535 9.485 -4.875 8.125 C-5.535 8.125 -6.195 8.125 -6.875 8.125 C-6.875 7.465 -6.875 6.805 -6.875 6.125 C-13.31861813 4.64570025 -13.31861813 4.64570025 -18.5 7.625 Z " fill="#5428F7" transform="translate(370.875,178.875)"/>
<path d="M0 0 C1.65515625 -0.03287109 1.65515625 -0.03287109 3.34375 -0.06640625 C7.55577719 0.77287145 8.85313245 2.20911795 11.5 5.5625 C11.93948867 8.41851476 12.09019987 10.65303457 11.98828125 13.48828125 C11.98120651 14.23587204 11.97413177 14.98346283 11.96684265 15.75370789 C11.93897645 18.12851402 11.87626132 20.50091351 11.8125 22.875 C11.78740668 24.49020018 11.76459531 26.10543754 11.74414062 27.72070312 C11.68917647 31.66888819 11.60296527 35.61528689 11.5 39.5625 C8.53 39.5625 5.56 39.5625 2.5 39.5625 C2.47494385 38.83135986 2.4498877 38.10021973 2.42407227 37.34692383 C2.30777359 34.02278583 2.18520072 30.69890759 2.0625 27.375 C2.02318359 26.22451172 1.98386719 25.07402344 1.94335938 23.88867188 C1.88051758 22.22094727 1.88051758 22.22094727 1.81640625 20.51953125 C1.77974854 19.49835205 1.74309082 18.47717285 1.70532227 17.42504883 C1.53300562 14.18386969 1.53300562 14.18386969 0.5 9.5625 C-3.46 9.5625 -7.42 9.5625 -11.5 9.5625 C-11.5 4.5625 -11.5 4.5625 -9.40625 2.28515625 C-6.00092242 0.26667579 -3.93678719 -0.00459905 0 0 Z " fill="#5527F9" transform="translate(321.5,175.4375)"/>
<path d="M0 0 C1.02287109 0.14501953 1.02287109 0.14501953 2.06640625 0.29296875 C4.69708337 1.25489311 5.59004564 2.66656874 7.1875 4.9375 C7.69667969 5.64777344 8.20585937 6.35804688 8.73046875 7.08984375 C11.20658997 10.81545383 11.11649558 13.27405295 11.09765625 17.7578125 C11.0962413 18.42086395 11.09482635 19.08391541 11.09336853 19.76705933 C11.08776754 21.88641863 11.075215 24.00567259 11.0625 26.125 C11.05748512 27.56119639 11.05292219 28.99739444 11.04882812 30.43359375 C11.03779782 33.95576345 11.02053259 37.47787145 11 41 C7.7 41 4.4 41 1 41 C1.33 40.34 1.66 39.68 2 39 C4.64 39.33 7.28 39.66 10 40 C10 39.01 10 38.02 10 37 C9.01 36.505 9.01 36.505 8 36 C8 26.76 8 17.52 8 8 C6.68 7.67 5.36 7.34 4 7 C4 6.01 4 5.02 4 4 C3.01 4 2.02 4 1 4 C1 4.99 1 5.98 1 7 C0.67 7.33 0.34 7.66 0 8 C0.33 8 0.66 8 1 8 C1 10.31 1 12.62 1 15 C-0.2375 14.01 -0.2375 14.01 -1.5 13 C-6.00655481 10.02377411 -10.41968192 10.52647351 -15.51171875 11.4609375 C-17.68760457 11.9323225 -19.84507271 12.44131515 -22 13 C-25 7.375 -25 7.375 -25 4 C-16.53071415 -0.84280973 -9.57345128 -1.61956883 0 0 Z " fill="#562AF4" transform="translate(257,175)"/>
<path d="M0 0 C5.39277414 0 8.11126518 0.43560486 13 2 C12 5 12 5 10 6 C10 7.98 10 9.96 10 12 C9.34 12 8.68 12 8 12 C8 20.58 8 29.16 8 38 C5.36 38 2.72 38 0 38 C0 25.46 0 12.92 0 0 Z " fill="#5527FA" transform="translate(275,177)"/>
<path d="M0 0 C0.33 0 0.66 0 1 0 C1 9.24 1 18.48 1 28 C-2.63 28 -6.26 28 -10 28 C-11.20029908 25.59940183 -11.11459743 24.10639351 -11.09765625 21.4296875 C-11.09443359 20.53378906 -11.09121094 19.63789063 -11.08789062 18.71484375 C-11.07951172 17.77769531 -11.07113281 16.84054688 -11.0625 15.875 C-11.05798828 14.93011719 -11.05347656 13.98523438 -11.04882812 13.01171875 C-11.03702357 10.67441613 -11.02055759 8.33723939 -11 6 C-10.01 6 -9.02 6 -8 6 C-7.67 4.68 -7.34 3.36 -7 2 C-6.21625 2.04125 -5.4325 2.0825 -4.625 2.125 C-1.83883881 2.28728734 -1.83883881 2.28728734 0 0 Z " fill="#4F26F5" transform="translate(308,187)"/>
<path d="M0 0 C0.66 0 1.32 0 2 0 C2 2.31 2 4.62 2 7 C2.66 7 3.32 7 4 7 C4.50615298 8.26839526 5.00469099 9.53983102 5.5 10.8125 C5.91765625 11.87404297 5.91765625 11.87404297 6.34375 12.95703125 C7 15 7 15 7 18 C7.99 18.33 8.98 18.66 10 19 C10.70211894 20.65204456 11.36971413 22.31923769 12 24 C12.66 24.33 13.32 24.66 14 25 C15.0064275 26.66279327 16.00585407 28.32983484 17 30 C18.39585785 31.81476003 18.39585785 31.81476003 20 33 C20.99 33 21.98 33 23 33 C23.33 33.99 23.66 34.98 24 36 C24.66 36 25.32 36 26 36 C26.33 35.01 26.66 34.02 27 33 C31.41248637 33.40113512 33.95062035 35.19786271 37.35546875 37.81640625 C39.02551197 39.12967735 39.02551197 39.12967735 41.375 39.875 C41.91125 40.24625 42.4475 40.6175 43 41 C43.37400786 43.32716 43.70764733 45.66117862 44 48 C47.45214853 50.30143236 48.23479324 50.13833854 52.1875 49.625 C53.08855469 49.51414063 53.98960938 49.40328125 54.91796875 49.2890625 C55.60503906 49.19367188 56.29210937 49.09828125 57 49 C52.73112985 52.27280045 50.4961158 53.41304143 45 53 C33.26932996 47.97494702 20.0411818 37.91178905 12 28 C12 27.34 12 26.68 12 26 C11.34 26 10.68 26 10 26 C3.49226912 18.33211654 0.893892 9.83281199 0 0 Z " fill="#5730F3" transform="translate(53,195)"/>
<path d="M0 0 C1.24523437 0.20367187 2.49046875 0.40734375 3.7734375 0.6171875 C5.18496094 0.86855469 5.18496094 0.86855469 6.625 1.125 C6.625 1.455 6.625 1.785 6.625 2.125 C0.685 2.62 0.685 2.62 -5.375 3.125 C-5.375 3.785 -5.375 4.445 -5.375 5.125 C-4.715 5.455 -4.055 5.785 -3.375 6.125 C-3.375 6.785 -3.375 7.445 -3.375 8.125 C-1.725 8.125 -0.075 8.125 1.625 8.125 C1.625 8.455 1.625 8.785 1.625 9.125 C-1.345 9.785 -4.315 10.445 -7.375 11.125 C-7.705 12.775 -8.035 14.425 -8.375 16.125 C-9.365 16.125 -10.355 16.125 -11.375 16.125 C-11.705 17.115 -12.035 18.105 -12.375 19.125 C-13.365 19.455 -14.355 19.785 -15.375 20.125 C-15.705 20.785 -16.035 21.445 -16.375 22.125 C-11.96470217 24.33449832 -7.88559676 24.3620648 -3.0625 24.25 C-1.95165039 24.23646484 -1.95165039 24.23646484 -0.81835938 24.22265625 C0.99623467 24.19924213 2.81066071 24.16337615 4.625 24.125 C1.80377236 26.94622764 -0.10172305 27.10647275 -4.0625 27.375 C-9.84784757 27.27911026 -14.53531168 25.82317384 -18.8125 21.875 C-21.29151646 17.51193103 -21.69716908 13.91482821 -20.8125 9 C-18.52767101 4.43034203 -15.27878113 1.95485331 -10.6328125 -0.0703125 C-6.73546396 -1.03296693 -3.94455037 -0.66982931 0 0 Z " fill="#5831EB" transform="translate(250.375,189.875)"/>
<path d="M0 0 C0.33 0 0.66 0 1 0 C1 2.97 1 5.94 1 9 C2.98 9 4.96 9 7 9 C7.88563089 12.79074537 8.11681301 16.28695898 8.09765625 20.17578125 C8.09443359 21.33271484 8.09121094 22.48964844 8.08789062 23.68164062 C8.07951172 24.87982422 8.07113281 26.07800781 8.0625 27.3125 C8.05798828 28.53001953 8.05347656 29.74753906 8.04882812 31.00195312 C8.03706578 34.00135226 8.02062826 37.00065089 8 40 C10.97 40 13.94 40 17 40 C17 29.77 17 19.54 17 9 C19.97 9 22.94 9 26 9 C26 6.03 26 3.06 26 0 C26.99 0.33 27.98 0.66 29 1 C28.67 4.3 28.34 7.6 28 11 C24.7 11 21.4 11 18 11 C18 20.9 18 30.8 18 41 C14.04 41 10.08 41 6 41 C5.0476488 35.39926794 4.84854211 29.98771786 4.875 24.3125 C4.87113281 23.47138672 4.86726562 22.63027344 4.86328125 21.76367188 C4.86457031 20.95091797 4.86585938 20.13816406 4.8671875 19.30078125 C4.86831543 18.57028564 4.86944336 17.83979004 4.87060547 17.0871582 C5.00317793 14.94873934 5.41572897 13.05713301 6 11 C4.02 11 2.04 11 0 11 C-1.04028969 7.61905851 -1.15672777 4.52637472 -1 1 C-0.67 0.67 -0.34 0.34 0 0 Z " fill="#553CBE" transform="translate(171,175)"/>
<path d="M0 0 C1.99954746 -0.04254356 4.00041636 -0.04080783 6 0 C7.59664149 1.59664149 7.3133471 3.41849602 7.5 5.625 C7.76983435 8.73030683 8.12408229 11.6768125 8.6875 14.75 C9.03715575 18.38641982 8.38751857 20.65363169 7 24 C5.02 23.67 3.04 23.34 1 23 C-0.23402862 18.22907044 -0.11265112 13.57530554 -0.0625 8.6875 C-0.05798828 7.85154297 -0.05347656 7.01558594 -0.04882812 6.15429688 C-0.03710548 4.10283351 -0.01917203 2.05140727 0 0 Z " fill="#5527FB" transform="translate(444,178)"/>
<path d="M0 0 C0 0.66 0 1.32 0 2 C0.99 2.33 1.98 2.66 3 3 C3 4.65 3 6.3 3 8 C-0.3282731 9.66413655 -3.99733973 8.81867406 -7.625 8.5625 C-8.42679687 8.51029297 -9.22859375 8.45808594 -10.0546875 8.40429688 C-12.03679103 8.27451629 -14.01844499 8.13790265 -16 8 C-15.34 8.66 -14.68 9.32 -14 10 C-15.65 9.67 -17.3 9.34 -19 9 C-19 8.34 -19 7.68 -19 7 C-19.66 7 -20.32 7 -21 7 C-20.77734375 5.109375 -20.77734375 5.109375 -20 3 C-13.86942035 -0.31918252 -6.79367615 -0.39027501 0 0 Z " fill="#5528FA" transform="translate(508,176)"/>
<path d="M0 0 C1.67542976 0.28604898 3.34385343 0.61781233 5 1 C4.01 1.66 3.02 2.32 2 3 C1.74969023 5.58380177 1.74969023 5.58380177 2 8 C4.97 8.495 4.97 8.495 8 9 C8.01401855 10.10456543 8.01401855 10.10456543 8.02832031 11.23144531 C8.08204155 14.57164218 8.16568622 17.91044119 8.25 21.25 C8.26417969 22.40886719 8.27835938 23.56773437 8.29296875 24.76171875 C8.32519531 25.87675781 8.35742188 26.99179688 8.390625 28.140625 C8.41157227 29.16704102 8.43251953 30.19345703 8.45410156 31.25097656 C9.13110811 34.66023136 10.33814946 35.83639008 13 38 C15.70183055 39.35091528 18.11808206 39.33858058 21.125 39.5625 C22.22070312 39.64628906 23.31640625 39.73007813 24.4453125 39.81640625 C25.70988281 39.90728516 25.70988281 39.90728516 27 40 C27 37.36 27 34.72 27 32 C26.401875 32.20625 25.80375 32.4125 25.1875 32.625 C23 33 23 33 20 31 C23.96 30.505 23.96 30.505 28 30 C28.66 33.3 29.32 36.6 30 40 C23.98507959 42.34728601 19.40378974 42.84132641 13.25 40.6875 C10.40303434 39.20926783 8.9321144 38.43853755 7 36 C4.59831903 27.90877534 4.75733704 19.35839094 5 11 C2.03 10.505 2.03 10.505 -1 10 C-1.02689216 8.52093108 -1.04634621 7.04172517 -1.0625 5.5625 C-1.07410156 4.73878906 -1.08570313 3.91507813 -1.09765625 3.06640625 C-1 1 -1 1 0 0 Z " fill="#7E60E1" transform="translate(517,175)"/>
<path d="M0 0 C-0.33 0.66 -0.66 1.32 -1 2 C-6.07210297 2.24741966 -8.78374381 1.49035891 -14 0 C-14 12.54 -14 25.08 -14 38 C-11.03 38 -8.06 38 -5 38 C-4.67 29.75 -4.34 21.5 -4 13 C-3.67 13 -3.34 13 -3 13 C-3 21.58 -3 30.16 -3 39 C-6.96 39 -10.92 39 -15 39 C-16 38 -16 38 -16.11352539 34.30639648 C-16.11336624 32.66128708 -16.10766988 31.01617269 -16.09765625 29.37109375 C-16.0962413 28.50686295 -16.09482635 27.64263214 -16.09336853 26.75221252 C-16.08775239 23.98060708 -16.07519719 21.2090812 -16.0625 18.4375 C-16.05748708 16.5631522 -16.05292381 14.68880315 -16.04882812 12.81445312 C-16.03777772 8.20960456 -16.0205023 3.60481579 -16 -1 C-14.40982276 -1.19429637 -12.8184169 -1.37855407 -11.2265625 -1.55859375 C-9.8974585 -1.7141272 -9.8974585 -1.7141272 -8.54150391 -1.87280273 C-5.33685041 -2.03318933 -2.91207442 -1.30277014 0 0 Z " fill="#735BD1" transform="translate(289,177)"/>
<path d="M0 0 C-0.66 3.63 -1.32 7.26 -2 11 C-3.60875 10.938125 -3.60875 10.938125 -5.25 10.875 C-8.65747485 10.9885825 -10.20739631 11.21273364 -13 13 C-12.67 11.02 -12.34 9.04 -12 7 C-8.7 7 -5.4 7 -2 7 C-2.33 5.02 -2.66 3.04 -3 1 C-6.00332164 1.30752967 -9.00161149 1.64784028 -12 2 C-13.4540625 2.1546875 -13.4540625 2.1546875 -14.9375 2.3125 C-17.16995967 2.8108338 -17.16995967 2.8108338 -18.1875 4.9375 C-18.455625 5.618125 -18.72375 6.29875 -19 7 C-19.66 7.66 -20.32 8.32 -21 9 C-21.99 9 -22.98 9 -24 9 C-24 12.96 -24 16.92 -24 21 C-24.99 21 -25.98 21 -27 21 C-26.74664919 13.99485011 -26.35485204 8.64953778 -22 3 C-14.75995704 -1.52502685 -8.29454206 -1.65890841 0 0 Z " fill="#633FD7" transform="translate(203,156)"/>
<path d="M0 0 C4.28579881 3.65553428 7.61434096 7.02503085 8.125 12.8125 C7.135 12.8125 6.145 12.8125 5.125 12.8125 C4.898125 11.925625 4.67125 11.03875 4.4375 10.125 C2.88192296 6.19901986 1.48693329 4.37049272 -1.875 1.8125 C-7.69523244 0.40437925 -11.1364236 1.00591113 -16.875 2.8125 C-20.3125 2.9375 -20.3125 2.9375 -22.875 2.8125 C-22.875 3.4725 -22.875 4.1325 -22.875 4.8125 C-23.514375 5.039375 -24.15375 5.26625 -24.8125 5.5 C-27.07525379 6.62897032 -27.07525379 6.62897032 -27.5625 9 C-27.80287185 11.16334662 -28.00369616 13.33111472 -28.1875 15.5 C-28.414375 16.593125 -28.64125 17.68625 -28.875 18.8125 C-30.91796875 20.01953125 -30.91796875 20.01953125 -32.875 20.8125 C-32.5483285 12.54771114 -31.11254517 8.05004517 -25.125 2.0625 C-17.64168924 -3.11825361 -8.37733397 -3.46020316 0 0 Z " fill="#6649DA" transform="translate(369.875,176.1875)"/>
<path d="M0 0 C0 3.63 0 7.26 0 11 C-2.64 11 -5.28 11 -8 11 C-7.67 10.34 -7.34 9.68 -7 9 C-5.68 9 -4.36 9 -3 9 C-3 7.02 -3 5.04 -3 3 C-4.79240663 3.11389875 -6.58394835 3.24147687 -8.375 3.375 C-9.37273437 3.44460937 -10.37046875 3.51421875 -11.3984375 3.5859375 C-14.15508879 3.76363964 -14.15508879 3.76363964 -16 6 C-16.33 5.67 -16.66 5.34 -17 5 C-19.64 4.67 -22.28 4.34 -25 4 C-25.33 16.54 -25.66 29.08 -26 42 C-26.33 42 -26.66 42 -27 42 C-27 28.8 -27 15.6 -27 2 C-24.52621876 0.76310938 -22.82084683 0.86689913 -20.0625 0.875 C-19.18722656 0.87242187 -18.31195313 0.86984375 -17.41015625 0.8671875 C-15 1 -15 1 -12 2 C-11.2575 1.690625 -10.515 1.38125 -9.75 1.0625 C-6.37981859 -0.23961555 -3.58214661 -0.14047634 0 0 Z " fill="#6B51D1" transform="translate(230,174)"/>
<path d="M0 0 C0.825 0.309375 1.65 0.61875 2.5 0.9375 C6.39126155 2.11877583 9.96166953 2.58224168 14 3 C10.25 5 10.25 5 8 5 C8.33 6.32 8.66 7.64 9 9 C8.34 9 7.68 9 7 9 C7 9.66 7 10.32 7 11 C13.93 11.495 13.93 11.495 21 12 C16.91293058 14.72471295 13.79747424 14.5053943 9 14 C4.54628168 12.91458123 0.82153182 11.54768788 -3 9 C-2.01 6.03 -1.02 3.06 0 0 Z " fill="#5E37E0" transform="translate(486,203)"/>
<path d="M0 0 C0.78955078 0.00128906 1.57910156 0.00257813 2.39257812 0.00390625 C6.66792725 0.06841277 10.04351882 0.41625695 13.9375 2.375 C13.65622579 3.85617801 13.36216268 5.33493249 13.0625 6.8125 C12.90007813 7.63621094 12.73765625 8.45992187 12.5703125 9.30859375 C12.36148438 9.99050781 12.15265625 10.67242187 11.9375 11.375 C9.39047384 12.64851308 8.5092055 12.17691925 5.8125 11.4375 C5.08804687 11.24285156 4.36359375 11.04820312 3.6171875 10.84765625 C3.06289063 10.69167969 2.50859375 10.53570312 1.9375 10.375 C1.9375 10.045 1.9375 9.715 1.9375 9.375 C4.5775 9.375 7.2175 9.375 9.9375 9.375 C9.9375 7.725 9.9375 6.075 9.9375 4.375 C9.2775 4.045 8.6175 3.715 7.9375 3.375 C7.9375 2.715 7.9375 2.055 7.9375 1.375 C-2.25409717 2.58554649 -2.25409717 2.58554649 -12.0625 5.375 C-13.55993888 7.36067734 -13.55993888 7.36067734 -14.0625 9.375 C-14.7225 9.375 -15.3825 9.375 -16.0625 9.375 C-15.8459375 9.98988281 -15.629375 10.60476562 -15.40625 11.23828125 C-15.1278125 12.04652344 -14.849375 12.85476562 -14.5625 13.6875 C-14.2840625 14.48800781 -14.005625 15.28851563 -13.71875 16.11328125 C-13.0625 18.375 -13.0625 18.375 -13.0625 21.375 C-15.62143347 19.22879773 -16.93416015 17.76001956 -18 14.5625 C-18.08209907 10.37544754 -17.14452015 8.00174478 -15.0625 4.375 C-10.08243616 0.11072515 -6.2502593 -0.19483991 0 0 Z " fill="#5B3FCC" transform="translate(500.0625,174.625)"/>
<path d="M0 0 C1.37478516 0.01740234 1.37478516 0.01740234 2.77734375 0.03515625 C3.69644531 0.04417969 4.61554688 0.05320313 5.5625 0.0625 C6.27277344 0.07410156 6.98304688 0.08570313 7.71484375 0.09765625 C8.04484375 1.41765625 8.37484375 2.73765625 8.71484375 4.09765625 C8.38484375 3.43765625 8.05484375 2.77765625 7.71484375 2.09765625 C4.74484375 2.09765625 1.77484375 2.09765625 -1.28515625 2.09765625 C-1.30987363 6.88484317 -1.3280245 11.67199295 -1.34008789 16.45922852 C-1.3451169 18.08781583 -1.3519409 19.71639862 -1.3605957 21.3449707 C-1.37272394 23.68572097 -1.37839888 26.02641155 -1.3828125 28.3671875 C-1.38797379 29.09541214 -1.39313507 29.82363678 -1.39845276 30.57392883 C-1.39879904 33.69367913 -1.27971229 36.11398813 -0.28515625 39.09765625 C2.35484375 39.42765625 4.99484375 39.75765625 7.71484375 40.09765625 C7.71484375 32.50765625 7.71484375 24.91765625 7.71484375 17.09765625 C9.71484375 19.09765625 9.71484375 19.09765625 9.85009766 21.34423828 C9.79772949 22.25544434 9.74536133 23.16665039 9.69140625 24.10546875 C9.63984375 25.09160156 9.58828125 26.07773438 9.53515625 27.09375 C9.47070312 28.12628906 9.40625 29.15882813 9.33984375 30.22265625 C9.283125 31.26292969 9.22640625 32.30320313 9.16796875 33.375 C9.02623949 35.94974825 8.87173526 38.52378741 8.71484375 41.09765625 C4.75484375 41.09765625 0.79484375 41.09765625 -3.28515625 41.09765625 C-3.3098033 35.41935547 -3.32799087 29.74108556 -3.34008789 24.06274414 C-3.34512881 22.1294704 -3.35196144 20.19620049 -3.3605957 18.26293945 C-3.3726719 15.49038753 -3.37838682 12.71788584 -3.3828125 9.9453125 C-3.38797379 9.07552261 -3.39313507 8.20573273 -3.39845276 7.30958557 C-3.3986481 5.23859811 -3.34723793 3.16771301 -3.28515625 1.09765625 C-2.28515625 0.09765625 -2.28515625 0.09765625 0 0 Z " fill="#4224BC" transform="translate(415.28515625,174.90234375)"/>
<path d="M0 0 C0 1.98 0 3.96 0 6 C-0.5775 6.268125 -1.155 6.53625 -1.75 6.8125 C-4.0325868 8.01719859 -5.9737942 9.40798115 -8 11 C-8.66 10.01 -9.32 9.02 -10 8 C-10.99 7.67 -11.98 7.34 -13 7 C-12.67 5.02 -12.34 3.04 -12 1 C-8.0186217 -0.3271261 -4.14954773 -0.06915913 0 0 Z " fill="#5A30F6" transform="translate(227,177)"/>
<path d="M0 0 C0.33 0 0.66 0 1 0 C1 2.64 1 5.28 1 8 C-2.27626375 8.9821994 -5.22788119 9.11580914 -8.640625 9.09765625 C-9.71054687 9.09443359 -10.78046875 9.09121094 -11.8828125 9.08789062 C-12.99398438 9.07951172 -14.10515625 9.07113281 -15.25 9.0625 C-16.93996094 9.05573242 -16.93996094 9.05573242 -18.6640625 9.04882812 C-21.44276217 9.03705397 -24.22135409 9.0206084 -27 9 C-27 9.99 -27 10.98 -27 12 C-28.32 11.34 -29.64 10.68 -31 10 C-31 9.34 -31 8.68 -31 8 C-30.01 8 -29.02 8 -28 8 C-28 7.34 -28 6.68 -28 6 C-18.93664124 5.89765341 -10.01824887 5.93003827 -1 7 C-0.67 4.69 -0.34 2.38 0 0 Z " fill="#603DD9" transform="translate(378,191)"/>
<path d="M0 0 C4.95408163 4.79427255 4.95408163 4.79427255 5.11352539 8.98095703 C5.10828857 10.22731934 5.10305176 11.47368164 5.09765625 12.7578125 C5.0962413 13.42086395 5.09482635 14.08391541 5.09336853 14.76705933 C5.08776754 16.88641863 5.075215 19.00567259 5.0625 21.125 C5.05748512 22.56119639 5.05292219 23.99739444 5.04882812 25.43359375 C5.03779782 28.95576345 5.02053259 32.47787145 5 36 C1.7 36 -1.6 36 -5 36 C-4.67 35.34 -4.34 34.68 -4 34 C-1.36 34.33 1.28 34.66 4 35 C4 34.01 4 33.02 4 32 C3.34 31.67 2.68 31.34 2 31 C2 21.76 2 12.52 2 3 C1.01 2.67 0.02 2.34 -1 2 C-0.67 1.34 -0.34 0.68 0 0 Z " fill="#5D3ED7" transform="translate(263,180)"/>
<path d="M0 0 C2 2 2 2 2.8125 5.4375 C3.64928535 9.05307 3.64928535 9.05307 6.1796875 10.6796875 C9.36518707 12.17096015 11.81216651 12.49517398 15.3125 12.6875 C16.91544922 12.78611328 16.91544922 12.78611328 18.55078125 12.88671875 C19.76314453 12.94279297 19.76314453 12.94279297 21 13 C21 10.36 21 7.72 21 5 C20.1028125 5.309375 20.1028125 5.309375 19.1875 5.625 C17 6 17 6 14 4 C16.64 3.67 19.28 3.34 22 3 C22.66 6.3 23.32 9.6 24 13 C17.98507959 15.34728601 13.40378974 15.84132641 7.25 13.6875 C4.42665585 12.22153284 2.92143509 11.41999988 1 9 C0.48828125 6.73828125 0.48828125 6.73828125 0.3125 4.3125 C0.24675781 3.50425781 0.18101562 2.69601563 0.11328125 1.86328125 C0.07589844 1.24839844 0.03851562 0.63351563 0 0 Z " fill="#583BC7" transform="translate(523,202)"/>
<path d="M0 0 C2.64 0 5.28 0 8 0 C8 4.29 8 8.58 8 13 C11.3 12.67 14.6 12.34 18 12 C18 15.63 18 19.26 18 23 C14.7 23 11.4 23 8 23 C8 22.34 8 21.68 8 21 C11.465 20.505 11.465 20.505 15 20 C15.33 18.02 15.66 16.04 16 14 C13.03 14 10.06 14 7 14 C7 9.71 7 5.42 7 1 C4.69 1 2.38 1 0 1 C0 0.67 0 0.34 0 0 Z " fill="#7548D5" transform="translate(526,163)"/>
<path d="M0 0 C3.96 0 7.92 0 12 0 C12 7.26 12 14.52 12 22 C11.67 22 11.34 22 11 22 C10.11722245 17.48184719 9.89410497 13.22487306 9.9375 8.625 C9.94652344 7.37976563 9.95554687 6.13453125 9.96484375 4.8515625 C9.97644531 3.91054687 9.98804688 2.96953125 10 2 C7.03 2 4.06 2 1 2 C1 7.61 1 13.22 1 19 C0.67 19 0.34 19 0 19 C0 12.73 0 6.46 0 0 Z " fill="#694ECF" transform="translate(442,175)"/>
<path d="M0 0 C0.66 0 1.32 0 2 0 C2 2.31 2 4.62 2 7 C2.66 7 3.32 7 4 7 C4.50615298 8.26839526 5.00469099 9.53983102 5.5 10.8125 C5.91765625 11.87404297 5.91765625 11.87404297 6.34375 12.95703125 C7 15 7 15 7 18 C7.99 18.33 8.98 18.66 10 19 C10.71727778 20.64551962 11.38325228 22.31422289 12 24 C12.66 24.66 13.32 25.32 14 26 C12.68 26 11.36 26 10 26 C3.19364204 18.96066157 0.85827361 9.4410097 0 0 Z " fill="#6F55DA" transform="translate(53,195)"/>
<path d="M0 0 C2.475 0.99 2.475 0.99 5 2 C2.70369286 4.55874224 0.71839721 6.6408014 -2.375 8.1875 C-6.63875411 7.88294613 -9.06399709 4.9190807 -12 2 C-8.68604014 0.91215665 -8.16419665 0.92737456 -4.75 2.4375 C-3.8425 2.953125 -2.935 3.46875 -2 4 C-1.34 2.68 -0.68 1.36 0 0 Z " fill="#846BE5" transform="translate(98,185)"/>
<path d="M0 0 C0.33 0 0.66 0 1 0 C1 2.64 1 5.28 1 8 C1.804375 7.979375 2.60875 7.95875 3.4375 7.9375 C6 8 6 8 7 9 C7.08631874 10.34267413 7.10706473 11.68974322 7.09765625 13.03515625 C7.09443359 13.84404297 7.09121094 14.65292969 7.08789062 15.48632812 C7.07951172 16.33646484 7.07113281 17.18660156 7.0625 18.0625 C7.05798828 18.91650391 7.05347656 19.77050781 7.04882812 20.65039062 C7.03700373 22.76695663 7.01906769 24.88348685 7 27 C6.34 26.67 5.68 26.34 5 26 C5 20.72 5 15.44 5 10 C3.35 10.33 1.7 10.66 0 11 C-1 10 -1 10 -1.1328125 7.96875 C-1.13023437 7.1540625 -1.12765625 6.339375 -1.125 5.5 C-1.12757813 4.6853125 -1.13015625 3.870625 -1.1328125 3.03125 C-1 1 -1 1 0 0 Z " fill="#7F61DB" transform="translate(380,175)"/>
<path d="M0 0 C3.3 0.33 6.6 0.66 10 1 C10 5.29 10 9.58 10 14 C9.67 13.34 9.34 12.68 9 12 C8.34 11.67 7.68 11.34 7 11 C7.66 11 8.32 11 9 11 C8.34 8.36 7.68 5.72 7 3 C5.68 3.33 4.36 3.66 3 4 C2.34 6.97 1.68 9.94 1 13 C0.67 13 0.34 13 0 13 C0 8.71 0 4.42 0 0 Z " fill="#5230D8" transform="translate(523,163)"/>
<path d="M0 0 C0.66 0 1.32 0 2 0 C2.33 1.98 2.66 3.96 3 6 C3.66 6 4.32 6 5 6 C5.33 6.66 5.66 7.32 6 8 C11.20492409 10.10411825 15.2368643 10.02737526 20.765625 9.2890625 C23 9 23 9 26 9 C22.82809838 12.17190162 19.69009689 12.72158212 15.37890625 13.0625 C10.12268886 12.92440562 6.30601401 11.27252648 2.5625 7.625 C0.99698613 4.9949367 0.34547027 3.02286486 0 0 Z " fill="#593AD0" transform="translate(442,204)"/>
<path d="M0 0 C2.97 0.495 2.97 0.495 6 1 C5.67 4.3 5.34 7.6 5 11 C2.03 11 -0.94 11 -4 11 C-4 16.94 -4 22.88 -4 29 C-4.33 29 -4.66 29 -5 29 C-5.19594676 25.85463232 -5.3803401 22.70869386 -5.5625 19.5625 C-5.61857422 18.66466797 -5.67464844 17.76683594 -5.73242188 16.84179688 C-5.78076172 15.98779297 -5.82910156 15.13378906 -5.87890625 14.25390625 C-5.9260376 13.46314697 -5.97316895 12.6723877 -6.02172852 11.85766602 C-6 10 -6 10 -5 9 C-3.48071962 8.92820036 -1.95832518 8.91607993 -0.4375 8.9375 C0.38878906 8.94652344 1.21507812 8.95554688 2.06640625 8.96484375 C2.70449219 8.97644531 3.34257812 8.98804688 4 9 C3.67 7.35 3.34 5.7 3 4 C2.01 4 1.02 4 0 4 C0 2.68 0 1.36 0 0 Z " fill="#724FDC" transform="translate(402,175)"/>
<path d="M0 0 C2.31 0.33 4.62 0.66 7 1 C7 1.33 7 1.66 7 2 C5.35 2 3.7 2 2 2 C2 10.25 2 18.5 2 27 C1.34 27 0.68 27 0 27 C0 18.09 0 9.18 0 0 Z " fill="#7E67D5" transform="translate(467,175)"/>
<path d="M0 0 C12.89099523 3.19032679 12.89099523 3.19032679 17 8 C19.08897065 12.52053248 19.42801788 15.80154992 17.75 20.5 C16 23 16 23 14 24 C14.350625 23.01 14.70125 22.02 15.0625 21 C16.29168546 16.58569893 16.18710593 13.45164725 15 9 C12.08158143 6.91367303 12.08158143 6.91367303 9 6 C9 5.34 9 4.68 9 4 C6.69 4 4.38 4 2 4 C1.34 2.68 0.68 1.36 0 0 Z " fill="#5E41D1" transform="translate(498,189)"/>
<path d="M0 0 C-0.33 0.66 -0.66 1.32 -1 2 C-6.07210297 2.24741966 -8.78374381 1.49035891 -14 0 C-14.33 7.92 -14.66 15.84 -15 24 C-15.33 24 -15.66 24 -16 24 C-16 15.75 -16 7.5 -16 -1 C-4.75 -2.125 -4.75 -2.125 0 0 Z " fill="#6B53C8" transform="translate(289,177)"/>
<path d="M0 0 C2.39614126 -0.05425226 4.79103853 -0.09379027 7.1875 -0.125 C8.19780273 -0.15013672 8.19780273 -0.15013672 9.22851562 -0.17578125 C13.28807807 -0.21538674 16.34998815 0.19979998 20 2 C19.71872579 3.48117801 19.42466268 4.95993249 19.125 6.4375 C18.96257813 7.26121094 18.80015625 8.08492187 18.6328125 8.93359375 C18.42398438 9.61550781 18.21515625 10.29742187 18 11 C15.45297384 12.27351308 14.5717055 11.80191925 11.875 11.0625 C11.15054687 10.86785156 10.42609375 10.67320312 9.6796875 10.47265625 C9.12539063 10.31667969 8.57109375 10.16070312 8 10 C8 9.67 8 9.34 8 9 C10.64 9 13.28 9 16 9 C16 7.35 16 5.7 16 4 C15.34 3.67 14.68 3.34 14 3 C14 2.34 14 1.68 14 1 C9.38 1 4.76 1 0 1 C0 0.67 0 0.34 0 0 Z " fill="#5B3CCA" transform="translate(494,175)"/>
<path d="M0 0 C9.27734375 -0.09765625 9.27734375 -0.09765625 12 0 C13 1 13 1 13.09765625 3.72265625 C13.08605469 4.82480469 13.07445312 5.92695313 13.0625 7.0625 C13.05347656 8.16722656 13.04445313 9.27195313 13.03515625 10.41015625 C13.02355469 11.26480469 13.01195312 12.11945313 13 13 C12.67 13 12.34 13 12 13 C12 9.37 12 5.74 12 2 C8.7 2 5.4 2 2 2 C2 5.3 2 8.6 2 12 C1.34 12 0.68 12 0 12 C0 8.04 0 4.08 0 0 Z " fill="#765CCF" transform="translate(385,163)"/>
<path d="M0 0 C1.75 2.25 1.75 2.25 3 5 C2.6875 7.3125 2.6875 7.3125 2 9 C0 6 0 6 0 4 C-0.94875 4.165 -1.8975 4.33 -2.875 4.5 C-7.5763877 5.18541792 -12.26003286 5.08583441 -17 5 C-17.33 4.34 -17.66 3.68 -18 3 C-17.25234375 2.95101562 -16.5046875 2.90203125 -15.734375 2.8515625 C-14.74953125 2.77679688 -13.7646875 2.70203125 -12.75 2.625 C-11.28820312 2.52058594 -11.28820312 2.52058594 -9.796875 2.4140625 C-6.12142464 1.86993158 -3.73117242 0 0 0 Z " fill="#6143D8" transform="translate(373,203)"/>
<path d="M0 0 C1.11375 1.175625 1.11375 1.175625 2.25 2.375 C6.49720692 6.42915206 9.41183114 7.24424986 15.25 7.625 C16.32765625 7.69976562 17.4053125 7.77453125 18.515625 7.8515625 C19.33546875 7.90054688 20.1553125 7.94953125 21 8 C21.33 6.02 21.66 4.04 22 2 C23.0625 3.8125 23.0625 3.8125 24 6 C23.67 6.99 23.34 7.98 23 9 C15.96226705 10.70611708 10.43725454 10.52227135 4 7 C0 2.79487179 0 2.79487179 0 0 Z " fill="#654CCA" transform="translate(386,207)"/>
<path d="M0 0 C1.2065625 0.2475 1.2065625 0.2475 2.4375 0.5 C9.88151528 1.64375028 9.88151528 1.64375028 17 0 C19.3329866 -0.04022391 21.66706666 -0.04320247 24 0 C22 3 22 3 19.375 3.6875 C12.68780944 4.30668431 7.3048547 4.31606908 1 2 C0.67 1.34 0.34 0.68 0 0 Z " fill="#6145D1" transform="translate(348,213)"/>
<path d="M0 0 C0 5.61 0 11.22 0 17 C-0.33 17 -0.66 17 -1 17 C-1.66 13.04 -2.32 9.08 -3 5 C-7.627322 4.627322 -7.627322 4.627322 -10 6 C-10 4.68 -10 3.36 -10 2 C-8.52112267 1.66538533 -7.04188942 1.33234333 -5.5625 1 C-4.32693359 0.7215625 -4.32693359 0.7215625 -3.06640625 0.4375 C-1 0 -1 0 0 0 Z " fill="#502BD5" transform="translate(479,175)"/>
<path d="M0 0 C0.33 0 0.66 0 1 0 C1 3.63 1 7.26 1 11 C0.34 11 -0.32 11 -1 11 C-1 16.61 -1 22.22 -1 28 C-2.98 28 -4.96 28 -7 28 C-7 27.34 -7 26.68 -7 26 C-5.35 26 -3.7 26 -2 26 C-2.01047363 25.28344238 -2.02094727 24.56688477 -2.03173828 23.82861328 C-2.07321299 20.59411095 -2.09929892 17.35966447 -2.125 14.125 C-2.14175781 12.99707031 -2.15851563 11.86914062 -2.17578125 10.70703125 C-2.18222656 9.63066406 -2.18867188 8.55429688 -2.1953125 7.4453125 C-2.20578613 6.45031738 -2.21625977 5.45532227 -2.22705078 4.43017578 C-2 2 -2 2 0 0 Z " fill="#4424EC" transform="translate(479,187)"/>
<path d="M0 0 C0.99 0 1.98 0 3 0 C2.34 3.63 1.68 7.26 1 11 C-0.60875 10.938125 -0.60875 10.938125 -2.25 10.875 C-5.65747485 10.9885825 -7.20739631 11.21273364 -10 13 C-9.67 11.02 -9.34 9.04 -9 7 C-5.7 7 -2.4 7 1 7 C0.67 4.69 0.34 2.38 0 0 Z " fill="#7058DA" transform="translate(200,156)"/>
<path d="M0 0 C0.33 0 0.66 0 1 0 C1 2.97 1 5.94 1 9 C2.98 9 4.96 9 7 9 C8.10228696 13.40914783 8.07654536 17.48382401 8 22 C7.67 21.01 7.34 20.02 7 19 C6.34 18.67 5.68 18.34 5 18 C5.33 15.69 5.66 13.38 6 11 C4.02 11 2.04 11 0 11 C-1.04028969 7.61905851 -1.15672777 4.52637472 -1 1 C-0.67 0.67 -0.34 0.34 0 0 Z " fill="#6C4ED7" transform="translate(171,175)"/>
<path d="M0 0 C0 0.66 0 1.32 0 2 C-0.68707031 2.10957031 -1.37414062 2.21914062 -2.08203125 2.33203125 C-2.98308594 2.49058594 -3.88414062 2.64914063 -4.8125 2.8125 C-5.70582031 2.96332031 -6.59914063 3.11414063 -7.51953125 3.26953125 C-10.18321256 4.05395393 -11.25690322 4.88627799 -13 7 C-14.0725 6.67 -15.145 6.34 -16.25 6 C-19.99731601 4.8282249 -19.99731601 4.8282249 -24 5 C-24 4.34 -24 3.68 -24 3 C-22.52093108 2.97310784 -21.04172517 2.95365379 -19.5625 2.9375 C-18.73878906 2.92589844 -17.91507812 2.91429687 -17.06640625 2.90234375 C-15 3 -15 3 -14 4 C-13.67 3.34 -13.34 2.68 -13 2 C-8.54569773 0.42789332 -4.71334503 -0.22991927 0 0 Z " fill="#5E3DDD" transform="translate(438,174)"/>
<path d="M0 0 C6.0546875 -0.1953125 6.0546875 -0.1953125 8 0 C10 2 10 2 11 5 C9.5629191 5.05422947 8.12524538 5.09289723 6.6875 5.125 C5.88699219 5.14820313 5.08648437 5.17140625 4.26171875 5.1953125 C2 5 2 5 -1 3 C-0.67 2.01 -0.34 1.02 0 0 Z " fill="#5528FC" transform="translate(245,192)"/>
<path d="M0 0 C8.58 2.31 17.16 4.62 26 7 C26 7.33 26 7.66 26 8 C24.08268082 7.88544319 22.1661325 7.75793742 20.25 7.625 C19.18265625 7.55539063 18.1153125 7.48578125 17.015625 7.4140625 C14.16130948 7.02214871 12.48827805 6.35327403 10 5 C7.33290931 4.83249586 7.33290931 4.83249586 5 5 C4.67 4.34 4.34 3.68 4 3 C1.97536745 2.34786708 1.97536745 2.34786708 0 2 C0 1.34 0 0.68 0 0 Z " fill="#6145D3" transform="translate(118,143)"/>
<path d="M0 0 C0.99 0.33 1.98 0.66 3 1 C2.67 4.3 2.34 7.6 2 11 C-1.63 11 -5.26 11 -9 11 C-9 10.34 -9 9.68 -9 9 C-6.03 9 -3.06 9 0 9 C0 6.03 0 3.06 0 0 Z " fill="#6347D5" transform="translate(197,175)"/>
<path d="M0 0 C9.99562363 -0.63019694 9.99562363 -0.63019694 14.1875 2 C15.0846875 2.99 15.0846875 2.99 16 4 C15.67 4.99 15.34 5.98 15 7 C14.54625 6.525625 14.0925 6.05125 13.625 5.5625 C10.63217977 2.68478824 8.40822359 2.89060205 4.375 2.9375 C2.87066406 2.95103516 2.87066406 2.95103516 1.3359375 2.96484375 C0.17964844 2.98224609 0.17964844 2.98224609 -1 3 C-0.67 2.01 -0.34 1.02 0 0 Z " fill="#5A3BD6" transform="translate(242,183)"/>
<path d="M0 0 C0 1.65 0 3.3 0 5 C0.99 5.33 1.98 5.66 3 6 C2.01 6.495 2.01 6.495 1 7 C1 7.66 1 8.32 1 9 C1.99 9.33 2.98 9.66 4 10 C2.35 10.33 0.7 10.66 -1 11 C-4 5.375 -4 5.375 -4 2 C-1 0 -1 0 0 0 Z " fill="#6647DE" transform="translate(236,177)"/>
<path d="M0 0 C0.33 0 0.66 0 1 0 C1 2.64 1 5.28 1 8 C-2.46222615 9.06723961 -5.64039266 9.10173486 -9.25 9.0625 C-10.32765625 9.05347656 -11.4053125 9.04445312 -12.515625 9.03515625 C-13.33546875 9.02355469 -14.1553125 9.01195312 -15 9 C-15 8.34 -15 7.68 -15 7 C-10.38 7 -5.76 7 -1 7 C-0.67 4.69 -0.34 2.38 0 0 Z " fill="#8F7BD4" transform="translate(378,191)"/>
<path d="M0 0 C1.37478516 0.01740234 1.37478516 0.01740234 2.77734375 0.03515625 C3.69644531 0.04417969 4.61554688 0.05320313 5.5625 0.0625 C6.27277344 0.07410156 6.98304688 0.08570313 7.71484375 0.09765625 C8.04484375 1.41765625 8.37484375 2.73765625 8.71484375 4.09765625 C8.38484375 3.43765625 8.05484375 2.77765625 7.71484375 2.09765625 C4.74484375 2.09765625 1.77484375 2.09765625 -1.28515625 2.09765625 C-1.28515625 6.05765625 -1.28515625 10.01765625 -1.28515625 14.09765625 C-1.94515625 14.09765625 -2.60515625 14.09765625 -3.28515625 14.09765625 C-3.31201563 11.95188988 -3.33148713 9.8060298 -3.34765625 7.66015625 C-3.35925781 6.46519531 -3.37085938 5.27023438 -3.3828125 4.0390625 C-3.25332939 0.13903117 -3.25332939 0.13903117 0 0 Z " fill="#5536CA" transform="translate(415.28515625,174.90234375)"/>
<path d="M0 0 C0 0.99 0 1.98 0 3 C-0.66 2.67 -1.32 2.34 -2 2 C-5.08100341 1.72428521 -8.16171476 1.55336467 -11.25 1.37890625 C-14 1 -14 1 -16 -1 C-10.31150252 -2.49697302 -5.58190932 -1.3348044 0 0 Z " fill="#6248DB" transform="translate(305,176)"/>
<path d="M0 0 C0.66 0.33 1.32 0.66 2 1 C0.515 3.475 0.515 3.475 -1 6 C-0.34 6.33 0.32 6.66 1 7 C0.01 7.66 -0.98 8.32 -2 9 C-2.73606499 12.56769552 -2.73606499 12.56769552 -3 16 C-5.3866451 12.63061868 -5.14871347 9.81123974 -4.55859375 5.90625 C-3.75303354 3.15720537 -2.22734599 1.72439689 0 0 Z " fill="#6648DD" transform="translate(234,193)"/>
<path d="M0 0 C1.98 0.495 1.98 0.495 4 1 C3.75 4.375 3.75 4.375 3 8 C1.02 8.99 1.02 8.99 -1 10 C-0.67 6.7 -0.34 3.4 0 0 Z " fill="#603EE5" transform="translate(338,187)"/>
<path d="M0 0 C0 0.33 0 0.66 0 1 C-0.72445313 1.03738281 -1.44890625 1.07476562 -2.1953125 1.11328125 C-7.86953437 1.49912834 -11.98823984 2.11823791 -17 5 C-17.99 5 -18.98 5 -20 5 C-18.57601609 2.15203218 -16.8143692 1.43845537 -14 0 C-9.07072113 -1.31447436 -4.96384897 -0.77025243 0 0 Z " fill="#5F45D3" transform="translate(326,175)"/>
<path d="M0 0 C0.33 0 0.66 0 1 0 C1 5.61 1 11.22 1 17 C-1.97 17 -4.94 17 -8 17 C-4.25 14 -4.25 14 -2 14 C-2 14.66 -2 15.32 -2 16 C-1.34 16 -0.68 16 0 16 C0 10.72 0 5.44 0 0 Z " fill="#522CEC" transform="translate(332,198)"/>
<path d="M0 0 C-4.17438766 2.38536438 -7.16584428 3.6445541 -12 3 C-13.875 1.5 -13.875 1.5 -15 0 C-13.9275 0.020625 -12.855 0.04125 -11.75 0.0625 C-8.22900044 0.14939907 -8.22900044 0.14939907 -5.8125 -0.5625 C-3.58481439 -1.10021722 -2.15542525 -0.69281526 0 0 Z " fill="#6147D3" transform="translate(110,245)"/>
<path d="M0 0 C1.65 0 3.3 0 5 0 C5.1875 2.875 5.1875 2.875 5 6 C1.68629 8.20914 0.6553979 8.22481553 -3.1875 8.125 C-4.08855469 8.10695312 -4.98960937 8.08890625 -5.91796875 8.0703125 C-6.60503906 8.04710937 -7.29210937 8.02390625 -8 8 C-8 7.67 -8 7.34 -8 7 C-4.7 6.34 -1.4 5.68 2 5 C2.33 3.68 2.66 2.36 3 1 C2.01 0.67 1.02 0.34 0 0 Z " fill="#8A71E4" transform="translate(253,199)"/>
<path d="M0 0 C0.99 0.33 1.98 0.66 3 1 C1.8545847 6.1103144 0.54521255 10.37234081 -2 15 C-2.33 15 -2.66 15 -3 15 C-3.125 12.625 -3.125 12.625 -3 10 C-2.34 9.34 -1.68 8.68 -1 8 C-0.54188325 6.02764667 -0.54188325 6.02764667 -0.375 3.875 C-0.25125 2.59625 -0.1275 1.3175 0 0 Z " fill="#6145D7" transform="translate(145,199)"/>
<path d="M0 0 C1.67542976 0.28604898 3.34385343 0.61781233 5 1 C4.01 1.66 3.02 2.32 2 3 C1.74969023 5.58380177 1.74969023 5.58380177 2 8 C3.32 8.66 4.64 9.32 6 10 C3.69 10 1.38 10 -1 10 C-1.02689216 8.52093108 -1.04634621 7.04172517 -1.0625 5.5625 C-1.07410156 4.73878906 -1.08570313 3.91507813 -1.09765625 3.06640625 C-1 1 -1 1 0 0 Z " fill="#6B50D2" transform="translate(517,175)"/>
<path d="M0 0 C0.66 0 1.32 0 2 0 C2 0.66 2 1.32 2 2 C2.99 2.33 3.98 2.66 5 3 C3.71937515 4.7074998 2.38232443 6.37373596 1 8 C0.34 8 -0.32 8 -1 8 C-1 8.66 -1 9.32 -1 10 C-1.66 10 -2.32 10 -3 10 C-2.67 8.35 -2.34 6.7 -2 5 C-1.01 5 -0.02 5 1 5 C0.67 3.35 0.34 1.7 0 0 Z " fill="#5E40DE" transform="translate(132,219)"/>
<path d="M0 0 C0.66 0 1.32 0 2 0 C3.59878075 1.74574388 5.01415879 3.59881337 6.46484375 5.46875 C7.99262375 7.35310272 7.99262375 7.35310272 11 7 C11.33 8.65 11.66 10.3 12 12 C8.60140297 10.53033642 6.35036291 8.61962486 3.75 6 C3.04359375 5.29875 2.3371875 4.5975 1.609375 3.875 C0 2 0 2 0 0 Z " fill="#573CCB" transform="translate(65,221)"/>
<path d="M0 0 C3.37743989 0.25018073 4.25135369 1.25719913 6.6875 3.75 C8.83054493 6.76184693 9.68158801 8.39133078 10 12 C9.01 12 8.02 12 7 12 C6.6596875 10.700625 6.6596875 10.700625 6.3125 9.375 C4.75974905 5.38221186 2.85680105 3.15751695 0 0 Z " fill="#5E3FD1" transform="translate(368,177)"/>
<path d="M0 0 C0.99 0 1.98 0 3 0 C1.76210371 3.71368887 0.14775123 4.77354181 -3 7 C-3.66 7 -4.32 7 -5 7 C-5.33 6.01 -5.66 5.02 -6 4 C-5.01 3.01 -4.02 2.02 -3 1 C-2.01 1.33 -1.02 1.66 0 2 C0 1.34 0 0.68 0 0 Z " fill="#7B60E7" transform="translate(112,176)"/>
<path d="M0 0 C0.33 1.32 0.66 2.64 1 4 C0.01 4.66 -0.98 5.32 -2 6 C-4.5 4.625 -4.5 4.625 -7 3 C-7 2.34 -7 1.68 -7 1 C-4 0 -4 0 0 0 Z " fill="#5A39E9" transform="translate(96,240)"/>
<path d="M0 0 C0.66 3.3 1.32 6.6 2 10 C1.01 10 0.02 10 -1 10 C-1 7.36 -1 4.72 -1 2 C-1.8971875 2.309375 -1.8971875 2.309375 -2.8125 2.625 C-5 3 -5 3 -8 1 C-2.25 0 -2.25 0 0 0 Z " fill="#6C55D0" transform="translate(545,205)"/>
<path d="M0 0 C1.41702513 0.14230808 2.8336096 0.28900746 4.25 0.4375 C5.43335938 0.55931641 5.43335938 0.55931641 6.640625 0.68359375 C8.82364639 0.97634993 10.8773182 1.42064419 13 2 C13 2.66 13 3.32 13 4 C6.07 3.505 6.07 3.505 -1 3 C-0.67 2.01 -0.34 1.02 0 0 Z " fill="#674BD5" transform="translate(248,174)"/>
<path d="M0 0 C2 3.875 2 3.875 2 5 C-2.62 5.66 -7.24 6.32 -12 7 C-12.33 6.34 -12.66 5.68 -13 5 C-9.98509443 3.99503148 -7.95818308 3.89664697 -4.8125 3.9375 C-3.91144531 3.94652344 -3.01039063 3.95554688 -2.08203125 3.96484375 C-1.39496094 3.97644531 -0.70789063 3.98804688 0 4 C0 2.68 0 1.36 0 0 Z " fill="#664ECC" transform="translate(438,180)"/>
<path d="M0 0 C0.33 0.66 0.66 1.32 1 2 C4.02934491 2.65772428 4.02934491 2.65772428 7 3 C6.67 3.99 6.34 4.98 6 6 C2.61976483 6 0.16531063 5.12544378 -3 4 C-2.67 3.01 -2.34 2.02 -2 1 C-1.34 0.67 -0.68 0.34 0 0 Z " fill="#8266F3" transform="translate(125,161)"/>
<path d="M0 0 C0.71542969 0.28746094 1.43085938 0.57492188 2.16796875 0.87109375 C2.71066406 1.09925781 3.25335938 1.32742187 3.8125 1.5625 C3.4825 2.5525 3.1525 3.5425 2.8125 4.5625 C2.8125 3.9025 2.8125 3.2425 2.8125 2.5625 C-0.8175 2.5625 -4.4475 2.5625 -8.1875 2.5625 C-7.8575 1.5725 -7.5275 0.5825 -7.1875 -0.4375 C-3.77818103 -1.57393966 -3.18414544 -1.30497764 0 0 Z " fill="#6647DB" transform="translate(361.1875,182.4375)"/>
<path d="M0 0 C0.66 0.33 1.32 0.66 2 1 C0.54712339 2.33927721 -0.91247259 3.67126847 -2.375 5 C-3.18710938 5.7425 -3.99921875 6.485 -4.8359375 7.25 C-7 9 -7 9 -9 9 C-9 8.01 -9 7.02 -9 6 C-6.625 4.4375 -6.625 4.4375 -4 3 C-3.34 2.34 -2.68 1.68 -2 1 C-1.34 0.67 -0.68 0.34 0 0 Z " fill="#7258DC" transform="translate(125,166)"/>
<path d="M0 0 C0.33 0.99 0.66 1.98 1 3 C-2.3 3 -5.6 3 -9 3 C-9.33 3.66 -9.66 4.32 -10 5 C-10 3.68 -10 2.36 -10 1 C-6.78548731 -0.60725635 -3.56387464 -0.05748185 0 0 Z " fill="#6D51E1" transform="translate(320,184)"/>
<path d="M0 0 C1.65 0 3.3 0 5 0 C2.0094833 3.33557632 -0.93184627 5.15083921 -5 7 C-4.67 6.01 -4.34 5.02 -4 4 C-3.34 4 -2.68 4 -2 4 C-2 3.34 -2 2.68 -2 2 C-1.34 2 -0.68 2 0 2 C0 1.34 0 0.68 0 0 Z " fill="#593DD4" transform="translate(117,235)"/>
<path d="M0 0 C0.66 0 1.32 0 2 0 C2.66 1.32 3.32 2.64 4 4 C3.34 4 2.68 4 2 4 C1.67 5.32 1.34 6.64 1 8 C0.01 7.01 -0.98 6.02 -2 5 C-1.34 3.35 -0.68 1.7 0 0 Z " fill="#7D63EC" transform="translate(115,188)"/>
<path d="M0 0 C2.62187494 1.04874998 3.79371361 1.64931313 5.25 4.125 C5.4975 4.74375 5.745 5.3625 6 6 C3.37886292 6 1.49064888 5.68707555 -1 5 C-0.67 3.35 -0.34 1.7 0 0 Z " fill="#5F3DE5" transform="translate(327,176)"/>
<path d="M0 0 C1.98 0.495 1.98 0.495 4 1 C4 1.66 4 2.32 4 3 C5.65 3 7.3 3 9 3 C9 3.33 9 3.66 9 4 C5.7 4.66 2.4 5.32 -1 6 C-0.67 4.02 -0.34 2.04 0 0 Z " fill="#7353E5" transform="translate(243,195)"/>
<path d="M0 0 C2.475 0.99 2.475 0.99 5 2 C4.01 3.32 3.02 4.64 2 6 C1.01 5.67 0.02 5.34 -1 5 C-0.67 3.35 -0.34 1.7 0 0 Z " fill="#7F63EB" transform="translate(98,185)"/>
<path d="M0 0 C0.66 0 1.32 0 2 0 C2 0.99 2 1.98 2 3 C3.11375 2.690625 3.11375 2.690625 4.25 2.375 C7 2 7 2 11 4 C7.7 4.66 4.4 5.32 1 6 C0.67 4.02 0.34 2.04 0 0 Z " fill="#6744E5" transform="translate(284,182)"/>
<path d="M0 0 C1.875 0.6875 1.875 0.6875 4 2 C5.125 4.5 5.125 4.5 6 7 C6.66 7.66 7.32 8.32 8 9 C6.68 9 5.36 9 4 9 C0 4 0 4 0 0 Z " fill="#684DD2" transform="translate(59,212)"/>
<path d="M0 0 C0.33 0 0.66 0 1 0 C1.12117188 0.61488281 1.24234375 1.22976562 1.3671875 1.86328125 C1.53476562 2.67152344 1.70234375 3.47976562 1.875 4.3125 C2.03742188 5.11300781 2.19984375 5.91351563 2.3671875 6.73828125 C2.94478999 9.25301118 2.94478999 9.25301118 5 12 C4.01 12 3.02 12 2 12 C-0.15229884 8.77155174 -0.60309873 6.81025223 -1 3 C-0.67 2.01 -0.34 1.02 0 0 Z " fill="#816BD6" transform="translate(483,183)"/>
<path d="M0 0 C-3.44450737 2.29633824 -5.93812283 2.54016485 -10 3 C-10 2.34 -10 1.68 -10 1 C-3.375 -1.125 -3.375 -1.125 0 0 Z " fill="#6548D8" transform="translate(86,144)"/>
<path d="M0 0 C1.32 0.66 2.64 1.32 4 2 C2.625 4.5 2.625 4.5 1 7 C0.34 7 -0.32 7 -1 7 C-2 4 -2 4 -1.0625 1.8125 C-0.5365625 0.9153125 -0.5365625 0.9153125 0 0 Z " fill="#5F3AEA" transform="translate(349,184)"/>
<path d="M0 0 C0.66 0.99 1.32 1.98 2 3 C3.96361864 3.57748803 3.96361864 3.57748803 6.125 3.6875 C7.40375 3.790625 8.6825 3.89375 10 4 C10 4.33 10 4.66 10 5 C6.37 5 2.74 5 -1 5 C-0.67 3.35 -0.34 1.7 0 0 Z " fill="#5B3DCD" transform="translate(413,211)"/>
<path d="M0 0 C0.99 0.33 1.98 0.66 3 1 C3.33 1.99 3.66 2.98 4 4 C0.37 4 -3.26 4 -7 4 C-7 3.67 -7 3.34 -7 3 C-4.69 3 -2.38 3 0 3 C0 2.01 0 1.02 0 0 Z " fill="#4E27DD" transform="translate(504,180)"/>
<path d="M0 0 C2.475 0.99 2.475 0.99 5 2 C5 2.66 5 3.32 5 4 C4.34 4 3.68 4 3 4 C2.67 4.66 2.34 5.32 2 6 C0 3 0 3 0 0 Z " fill="#5531E3" transform="translate(339,202)"/>
<path d="M0 0 C0.66 0.99 1.32 1.98 2 3 C-2.75 4.125 -2.75 4.125 -5 3 C-5 2.34 -5 1.68 -5 1 C-3.35 0.67 -1.7 0.34 0 0 Z " fill="#7154E2" transform="translate(496,196)"/>
<path d="M0 0 C-1.28965176 1.37562854 -2.62689293 2.70766393 -4 4 C-4.66 4 -5.32 4 -6 4 C-6 2.68 -6 1.36 -6 0 C-3 -1 -3 -1 0 0 Z " fill="#5327F5" transform="translate(222,178)"/>
<path d="M0 0 C-3.22791555 2.1519437 -4.28400809 2.20086443 -8 2 C-8.33 1.34 -8.66 0.68 -9 0 C-5.93109813 -1.53445094 -3.29905734 -0.54984289 0 0 Z " fill="#6A4BE3" transform="translate(498,176)"/>
<path d="M0 0 C1.65 0 3.3 0 5 0 C3.95125002 2.62187494 3.35068687 3.79371361 0.875 5.25 C0.25625 5.4975 -0.3625 5.745 -1 6 C-0.67 4.02 -0.34 2.04 0 0 Z " fill="#5E3FE1" transform="translate(191,163)"/>
</svg>
