<svg width="190" height="43" viewBox="0 0 190 43" fill="none" xmlns="http://www.w3.org/2000/svg">
<path d="M60.937 13.854V17.005H54.359V20.409H59.281V23.468H54.359V30H50.426V13.854H60.937ZM66.9371 19.305C67.3971 18.5997 67.9721 18.0477 68.6621 17.649C69.3521 17.235 70.1188 17.028 70.9621 17.028V21.191H69.8811C68.8998 21.191 68.1638 21.4057 67.6731 21.835C67.1825 22.249 66.9371 22.985 66.9371 24.043V30H63.0041V17.166H66.9371V19.305ZM72.06 23.56C72.06 22.2413 72.3053 21.0837 72.796 20.087C73.302 19.0903 73.9843 18.3237 74.843 17.787C75.7017 17.2503 76.66 16.982 77.718 16.982C78.6227 16.982 79.4123 17.166 80.087 17.534C80.777 17.902 81.306 18.385 81.674 18.983V17.166H85.607V30H81.674V28.183C81.2907 28.781 80.754 29.264 80.064 29.632C79.3893 30 78.5997 30.184 77.695 30.184C76.6523 30.184 75.7017 29.9157 74.843 29.379C73.9843 28.827 73.302 28.0527 72.796 27.056C72.3053 26.044 72.06 24.8787 72.06 23.56ZM81.674 23.583C81.674 22.6017 81.398 21.8273 80.846 21.26C80.3093 20.6927 79.65 20.409 78.868 20.409C78.086 20.409 77.419 20.6927 76.867 21.26C76.3303 21.812 76.062 22.5787 76.062 23.56C76.062 24.5413 76.3303 25.3233 76.867 25.906C77.419 26.4733 78.086 26.757 78.868 26.757C79.65 26.757 80.3093 26.4733 80.846 25.906C81.398 25.3387 81.674 24.5643 81.674 23.583ZM104.828 17.028C106.423 17.028 107.688 17.511 108.623 18.477C109.574 19.443 110.049 20.7847 110.049 22.502V30H106.139V23.031C106.139 22.203 105.917 21.5667 105.472 21.122C105.043 20.662 104.445 20.432 103.678 20.432C102.912 20.432 102.306 20.662 101.861 21.122C101.432 21.5667 101.217 22.203 101.217 23.031V30H97.3074V23.031C97.3074 22.203 97.085 21.5667 96.6404 21.122C96.211 20.662 95.613 20.432 94.8464 20.432C94.0797 20.432 93.474 20.662 93.0294 21.122C92.6 21.5667 92.3854 22.203 92.3854 23.031V30H88.4524V17.166H92.3854V18.776C92.784 18.2393 93.3054 17.8177 93.9494 17.511C94.5934 17.189 95.3217 17.028 96.1344 17.028C97.1004 17.028 97.959 17.235 98.7104 17.649C99.477 18.063 100.075 18.6533 100.504 19.42C100.949 18.7147 101.555 18.1397 102.321 17.695C103.088 17.2503 103.924 17.028 104.828 17.028ZM124.898 23.376C124.898 23.744 124.875 24.1273 124.829 24.526H115.928C115.989 25.3233 116.242 25.9367 116.687 26.366C117.147 26.78 117.707 26.987 118.366 26.987C119.347 26.987 120.03 26.573 120.413 25.745H124.599C124.384 26.5883 123.993 27.3473 123.426 28.022C122.874 28.6967 122.176 29.2257 121.333 29.609C120.49 29.9923 119.547 30.184 118.504 30.184C117.247 30.184 116.127 29.9157 115.146 29.379C114.165 28.8423 113.398 28.0757 112.846 27.079C112.294 26.0823 112.018 24.917 112.018 23.583C112.018 22.249 112.286 21.0837 112.823 20.087C113.375 19.0903 114.142 18.3237 115.123 17.787C116.104 17.2503 117.231 16.982 118.504 16.982C119.746 16.982 120.85 17.2427 121.816 17.764C122.782 18.2853 123.533 19.029 124.07 19.995C124.622 20.961 124.898 22.088 124.898 23.376ZM120.873 22.341C120.873 21.6663 120.643 21.1297 120.183 20.731C119.723 20.3323 119.148 20.133 118.458 20.133C117.799 20.133 117.239 20.3247 116.779 20.708C116.334 21.0913 116.058 21.6357 115.951 22.341H120.873ZM138.588 13.854V17.005H134.31V30H130.377V17.005H126.099V13.854H138.588ZM144.495 19.305C144.955 18.5997 145.53 18.0477 146.22 17.649C146.91 17.235 147.676 17.028 148.52 17.028V21.191H147.439C146.457 21.191 145.721 21.4057 145.231 21.835C144.74 22.249 144.495 22.985 144.495 24.043V30H140.562V17.166H144.495V19.305ZM163.073 17.166V30H159.14V28.252C158.741 28.8193 158.197 29.2793 157.507 29.632C156.832 29.9693 156.081 30.138 155.253 30.138C154.271 30.138 153.405 29.9233 152.654 29.494C151.902 29.0493 151.32 28.413 150.906 27.585C150.492 26.757 150.285 25.7833 150.285 24.664V17.166H154.195V24.135C154.195 24.9937 154.417 25.6607 154.862 26.136C155.306 26.6113 155.904 26.849 156.656 26.849C157.422 26.849 158.028 26.6113 158.473 26.136C158.917 25.6607 159.14 24.9937 159.14 24.135V17.166H163.073ZM171.119 30.184C169.999 30.184 169.003 29.9923 168.129 29.609C167.255 29.2257 166.565 28.7043 166.059 28.045C165.553 27.3703 165.269 26.619 165.208 25.791H169.095C169.141 26.2357 169.348 26.596 169.716 26.872C170.084 27.148 170.536 27.286 171.073 27.286C171.563 27.286 171.939 27.194 172.2 27.01C172.476 26.8107 172.614 26.5577 172.614 26.251C172.614 25.883 172.422 25.6147 172.039 25.446C171.655 25.262 171.034 25.0627 170.176 24.848C169.256 24.6333 168.489 24.411 167.876 24.181C167.262 23.9357 166.733 23.56 166.289 23.054C165.844 22.5327 165.622 21.835 165.622 20.961C165.622 20.225 165.821 19.558 166.22 18.96C166.634 18.3467 167.232 17.8637 168.014 17.511C168.811 17.1583 169.754 16.982 170.843 16.982C172.453 16.982 173.718 17.3807 174.638 18.178C175.573 18.9753 176.11 20.0333 176.248 21.352H172.614C172.552 20.9073 172.353 20.5547 172.016 20.294C171.694 20.0333 171.264 19.903 170.728 19.903C170.268 19.903 169.915 19.995 169.67 20.179C169.424 20.3477 169.302 20.5853 169.302 20.892C169.302 21.26 169.493 21.536 169.877 21.72C170.275 21.904 170.889 22.088 171.717 22.272C172.667 22.5173 173.442 22.7627 174.04 23.008C174.638 23.238 175.159 23.6213 175.604 24.158C176.064 24.6793 176.301 25.3847 176.317 26.274C176.317 27.0253 176.102 27.7 175.673 28.298C175.259 28.8807 174.653 29.3407 173.856 29.678C173.074 30.0153 172.161 30.184 171.119 30.184ZM185.876 26.665V30H183.875C182.449 30 181.337 29.655 180.54 28.965C179.743 28.2597 179.344 27.1173 179.344 25.538V20.432H177.78V17.166H179.344V14.038H183.277V17.166H185.853V20.432H183.277V25.584C183.277 25.9673 183.369 26.2433 183.553 26.412C183.737 26.5807 184.044 26.665 184.473 26.665H185.876Z" fill="#5830F4"/>
<path d="M20.3484 0C20.3782 0.0308736 23.5831 3.32547 31.0486 4.28809C32.353 4.45649 33.4926 4.52538 34.4831 4.52539C38.9295 4.52539 40.3863 3.1384 40.3962 3.12891C40.414 3.23548 44.6802 28.8891 20.3484 43C-3.99306 28.8849 0.28329 3.22001 0.298554 3.12891C0.324042 3.15311 1.78928 4.52537 6.21066 4.52539C7.20157 4.52539 8.34125 4.45658 9.64621 4.28809C17.1477 3.32085 20.3484 0 20.3484 0ZM18.1267 23.0469L13.6325 18.4219L10.5105 21.6348L18.1267 28.373L31.696 13.6582L29.4782 11.3652L18.1267 23.0469Z" fill="#5830F4"/>
<path d="M20.3479 38.0487L20.2252 37.9671C12.534 32.8576 7.53153 25.8401 5.35651 17.1098C4.69505 14.4548 4.31735 11.6938 4.234 8.90375L4.22668 8.65761L4.47219 8.67598C6.18536 8.80399 8.11247 8.73432 10.1844 8.46683C14.9375 7.85403 18.2745 6.37637 20.2369 5.24473L20.3478 5.18091L20.4586 5.24473C22.4201 6.37637 25.7561 7.85392 30.5089 8.46671C32.5808 8.73432 34.5071 8.80443 36.2219 8.676L36.4674 8.65764L36.4601 8.90378C36.3767 11.6943 35.9992 14.4553 35.3378 17.11C33.163 25.8403 28.1609 32.8576 20.4706 37.9672L20.3479 38.0487ZM4.68543 9.13519C4.78203 11.8103 5.15234 14.4559 5.78686 17.0025C7.92265 25.5759 12.821 32.4765 20.3479 37.5159C27.874 32.4767 32.7718 25.576 34.9076 17.0026C35.542 14.4565 35.9121 11.8107 36.0087 9.13519C34.3229 9.24185 32.4559 9.16502 30.4521 8.90662C25.7147 8.29567 22.358 6.83532 20.3478 5.69233C18.3367 6.83544 14.979 8.29593 10.2413 8.90674C8.23756 9.16526 6.36967 9.24159 4.68543 9.13519Z" fill="#7452FC"/>
<path d="M20.348 0.6039C21.3387 1.4617 24.6549 3.91114 30.9915 4.72823C32.2303 4.88815 33.4052 4.96928 34.4833 4.96928C37.5004 4.96928 39.2116 4.33815 40.048 3.88839C40.2554 5.74931 40.6399 11.1886 39.0758 17.6934C37.9452 22.3957 36.0317 26.7288 33.3885 30.5724C30.1296 35.3112 25.7428 39.3188 20.3479 42.4865C14.9526 39.3188 10.5655 35.3112 7.30632 30.5724C4.66288 26.7288 2.74922 22.3957 1.61846 17.6934C0.0543076 11.1886 0.438852 5.74922 0.646275 3.8883C1.48263 4.33804 3.19396 4.96925 6.21077 4.96925C7.28889 4.96925 8.4637 4.88815 9.70242 4.7282C16.0402 3.91114 19.357 1.4617 20.348 0.6039ZM20.348 0C20.348 0 17.1476 3.32122 9.64577 4.28837C8.34081 4.45687 7.20171 4.52578 6.2108 4.52578C1.75001 4.52578 0.298231 3.1286 0.298231 3.1286C0.298231 3.1286 -4.03674 28.8598 20.348 43C44.7308 28.8598 40.396 3.1286 40.396 3.1286C40.396 3.1286 38.9449 4.52578 34.4833 4.52578C33.4927 4.52578 32.3529 4.45681 31.0483 4.28837C23.5477 3.32122 20.348 0 20.348 0Z" fill="#5830F4"/>
<path d="M20.3477 5.43652C22.5248 6.69235 25.8518 8.08967 30.4805 8.68652C31.8881 8.86827 33.2349 8.96094 34.4834 8.96094C35.1058 8.96094 35.6899 8.93849 36.2383 8.89746C36.1713 11.1401 35.8916 13.9715 35.123 17.0566C32.9595 25.7415 27.994 32.7021 20.3477 37.7822C12.701 32.7021 7.73502 25.7413 5.57129 17.0566C4.80251 13.9706 4.52308 11.1392 4.45605 8.89746C5.00427 8.93845 5.58882 8.96094 6.21094 8.96094C7.45928 8.96093 8.80606 8.86818 10.2129 8.68652C14.8424 8.08967 18.1702 6.69226 20.3477 5.43652ZM18.127 23.0469L13.6328 18.4219L10.5107 21.6348L18.127 28.373L31.6953 13.6582L29.4775 11.3652L18.127 23.0469Z" fill="#7452FC"/>
</svg>
