<svg width="41" height="43" viewBox="0 0 41 43" fill="none" xmlns="http://www.w3.org/2000/svg">
<path fill-rule="evenodd" clip-rule="evenodd" d="M20.3484 0C20.3782 0.0308736 23.5831 3.32547 31.0486 4.28809C32.353 4.45649 33.4926 4.52538 34.4831 4.52539C38.9295 4.52539 40.3863 3.1384 40.3962 3.12891C40.414 3.23548 44.6802 28.8891 20.3484 43C-3.99306 28.8849 0.28329 3.22001 0.298554 3.12891C0.324042 3.15311 1.78928 4.52537 6.21066 4.52539C7.20157 4.52539 8.34125 4.45658 9.64621 4.28809C17.1477 3.32085 20.3484 0 20.3484 0ZM18.1267 23.0469L13.6325 18.4219L10.5105 21.6348L18.1267 28.373L31.696 13.6582L29.4782 11.3652L18.1267 23.0469Z" fill="#5830F4"/>
<path d="M20.3479 38.0487L20.2252 37.9671C12.534 32.8576 7.53153 25.8401 5.35651 17.1098C4.69505 14.4548 4.31735 11.6938 4.234 8.90375L4.22668 8.65761L4.47219 8.67598C6.18536 8.80399 8.11247 8.73432 10.1844 8.46683C14.9375 7.85403 18.2745 6.37637 20.2369 5.24473L20.3478 5.18091L20.4586 5.24473C22.4201 6.37637 25.7561 7.85392 30.5089 8.46671C32.5808 8.73432 34.5071 8.80443 36.2219 8.676L36.4674 8.65764L36.4601 8.90378C36.3767 11.6943 35.9992 14.4553 35.3378 17.11C33.163 25.8403 28.1609 32.8576 20.4706 37.9672L20.3479 38.0487ZM4.68543 9.13519C4.78203 11.8103 5.15234 14.4559 5.78686 17.0025C7.92265 25.5759 12.821 32.4765 20.3479 37.5159C27.874 32.4767 32.7718 25.576 34.9076 17.0026C35.542 14.4565 35.9121 11.8107 36.0087 9.13519C34.3229 9.24185 32.4559 9.16502 30.4521 8.90662C25.7147 8.29567 22.358 6.83532 20.3478 5.69233C18.3367 6.83544 14.979 8.29593 10.2413 8.90674C8.23756 9.16526 6.36967 9.24159 4.68543 9.13519Z" fill="#7452FC"/>
<path d="M20.348 0.6039C21.3387 1.4617 24.6549 3.91114 30.9915 4.72823C32.2303 4.88815 33.4052 4.96928 34.4833 4.96928C37.5004 4.96928 39.2116 4.33815 40.048 3.88839C40.2554 5.74931 40.6399 11.1886 39.0758 17.6934C37.9452 22.3957 36.0317 26.7288 33.3885 30.5724C30.1296 35.3112 25.7428 39.3188 20.3479 42.4865C14.9526 39.3188 10.5655 35.3112 7.30632 30.5724C4.66288 26.7288 2.74922 22.3957 1.61846 17.6934C0.0543076 11.1886 0.438852 5.74922 0.646275 3.8883C1.48263 4.33804 3.19396 4.96925 6.21077 4.96925C7.28889 4.96925 8.4637 4.88815 9.70242 4.7282C16.0402 3.91114 19.357 1.4617 20.348 0.6039ZM20.348 0C20.348 0 17.1476 3.32122 9.64577 4.28837C8.34081 4.45687 7.20171 4.52578 6.2108 4.52578C1.75002 4.52578 0.298231 3.1286 0.298231 3.1286C0.298231 3.1286 -4.03674 28.8598 20.348 43C44.7308 28.8598 40.396 3.1286 40.396 3.1286C40.396 3.1286 38.9449 4.52578 34.4833 4.52578C33.4927 4.52578 32.3529 4.45681 31.0483 4.28837C23.5477 3.32122 20.348 0 20.348 0Z" fill="#5830F4"/>
<path d="M20.3477 5.43652C22.5248 6.69235 25.8518 8.08967 30.4805 8.68652C31.8881 8.86827 33.2349 8.96094 34.4834 8.96094C35.1058 8.96094 35.6899 8.93849 36.2383 8.89746C36.1713 11.1401 35.8916 13.9715 35.123 17.0566C32.9595 25.7415 27.994 32.7021 20.3477 37.7822C12.701 32.7021 7.73502 25.7413 5.57129 17.0566C4.80251 13.9706 4.52308 11.1392 4.45605 8.89746C5.00427 8.93845 5.58882 8.96094 6.21094 8.96094C7.45928 8.96093 8.80606 8.86818 10.2129 8.68652C14.8424 8.08967 18.1702 6.69226 20.3477 5.43652ZM18.127 23.0469L13.6328 18.4219L10.5107 21.6348L18.127 28.373L31.6953 13.6582L29.4775 11.3652L18.127 23.0469Z" fill="#7452FC"/>
</svg>
